<svg width="9" height="10" viewBox="0 0 9 10" fill="none" xmlns="http://www.w3.org/2000/svg">
<path opacity="0.67" fill-rule="evenodd" clip-rule="evenodd" d="M2.77108 0.361446C2.77108 0.161825 2.60926 0 2.40964 0C2.21002 0 2.04819 0.161825 2.04819 0.361446V1.08434H1.92771C0.863066 1.08434 0 1.9474 0 3.01205V3.37349H8.6747V3.01205C8.6747 1.9474 7.81163 1.08434 6.74699 1.08434H6.62651V0.361446C6.62651 0.161825 6.46468 0 6.26506 0C6.06544 0 5.90361 0.161825 5.90361 0.361446V1.08434H2.77108V0.361446ZM0 4.09639H8.6747V8.07229C8.6747 9.13693 7.81163 10 6.74699 10H1.92771C0.863066 10 0 9.13693 0 8.07229V4.09639Z" fill="#FF810E"/>
</svg>
