<svg width="10" height="10" viewBox="0 0 10 10" fill="none" xmlns="http://www.w3.org/2000/svg">
<path opacity="0.67" fill-rule="evenodd" clip-rule="evenodd" d="M5 10C7.76142 10 10 7.76142 10 5C10 2.23858 7.76142 0 5 0C2.23858 0 0 2.23858 0 5C0 7.76142 2.23858 10 5 10ZM5.375 2.5C5.375 2.29289 5.20711 2.125 5 2.125C4.79289 2.125 4.625 2.29289 4.625 2.5V5C4.625 5.16141 4.72829 5.30471 4.88141 5.35576L6.38141 5.85576C6.57789 5.92125 6.79026 5.81506 6.85576 5.61859C6.92125 5.42211 6.81506 5.20974 6.61859 5.14424L5.375 4.72972V2.5Z" fill="#FF810E"/>
</svg>
