<svg width="129" height="30" viewBox="0 0 129 30" fill="none" xmlns="http://www.w3.org/2000/svg">
<path fill-rule="evenodd" clip-rule="evenodd" d="M65.0132 3.21826V29.0857H70.1003V11.4528H70.2727L77.9468 22.4896H79.93L87.5606 11.4959H87.7332V29.0857H93.0361V3.21826H87.6471L79.1538 15.5054L70.402 3.21826H65.0132Z" fill="#FBFBFD"/>
<path fill-rule="evenodd" clip-rule="evenodd" d="M50.7861 29.0857V22.4896L61.7798 3.21826H56.1321L48.4582 15.5054H48.027L40.4825 3.21826H34.5328L45.699 22.4466V29.0857H50.7861Z" fill="#FBFBFD"/>
<path fill-rule="evenodd" clip-rule="evenodd" d="M31.4289 3.21826H26.3849V29.0857H31.4289V3.21826Z" fill="#FBFBFD"/>
<path fill-rule="evenodd" clip-rule="evenodd" d="M7.80318 17.4454L13.3647 18.3941C14.7443 18.6958 16.0378 18.9975 16.8997 19.6442C17.3742 20.1184 17.762 20.636 17.762 21.4549C17.762 22.3172 17.4603 22.964 16.8997 23.3951C15.4771 24.3865 13.839 24.8177 10.6056 24.8177C7.50148 24.8177 4.91454 24.2574 1.59513 22.8775L0 27.1457C3.70755 28.9134 6.07855 29.5601 10.6917 29.5601C13.7959 29.5601 17.5465 28.9134 19.9178 27.3613C21.6855 26.1973 22.9786 24.2574 22.9786 21.3258C22.9786 19.2561 22.2458 17.7043 21.1679 16.54C19.4867 14.8158 16.9862 13.9535 14.0546 13.4362L8.92407 12.5309C8.10487 12.4014 7.11334 12.1858 6.38052 11.7116C5.8633 11.3669 5.60438 10.8493 5.60438 10.2026C5.60438 9.46975 5.8633 8.90941 6.42357 8.47829C7.50148 7.61598 9.44136 7.40039 11.6402 7.40039C14.3562 7.40039 16.7706 8.00405 19.8747 9.55585L21.9441 5.50356C17.9346 3.30476 15.0891 2.74414 11.2954 2.74414C7.97565 2.74414 5.13013 3.34781 3.10388 4.85684C1.42258 6.10695 0.387792 7.74513 0.387792 10.3321C0.387792 12.1858 1.12096 13.8674 2.19852 14.9449C3.62138 16.3678 5.7338 17.0576 7.80318 17.4454Z" fill="#FBFBFD"/>
<path d="M125.03 24.7581C125.03 25.5989 124.741 26.3082 124.164 26.8853C123.587 27.4627 122.877 27.7514 122.038 27.7514C121.984 27.7514 121.947 27.7262 121.927 27.6773C121.799 27.3368 121.734 27.1278 121.734 27.0521C121.734 26.9919 121.786 26.961 121.89 26.961C122.299 26.961 122.674 26.8741 123.015 26.699C123.204 26.6024 123.388 26.4538 123.568 26.2505C123.773 26.0207 123.875 25.8134 123.875 25.6269C123.875 25.6033 123.865 25.5906 123.846 25.5906C123.83 25.5906 123.798 25.6045 123.752 25.6312C123.462 25.8063 123.148 25.8932 122.809 25.8932C122.335 25.8932 121.951 25.7461 121.655 25.4505C121.36 25.1547 121.213 24.7707 121.213 24.2972C121.213 23.7226 121.385 23.2742 121.73 22.9518C122.063 22.6364 122.519 22.4795 123.096 22.4795C123.736 22.4795 124.229 22.7052 124.57 23.1564C124.877 23.5643 125.03 24.0982 125.03 24.7581ZM124.08 24.412C124.08 24.0938 123.999 23.8248 123.837 23.6061C123.661 23.3595 123.418 23.2362 123.113 23.2362C122.446 23.2362 122.112 23.5893 122.112 24.2972C122.112 24.5732 122.199 24.8031 122.373 24.9864C122.547 25.1701 122.771 25.2627 123.047 25.2627C123.326 25.2627 123.561 25.1924 123.756 25.0523C123.972 24.8969 124.08 24.6824 124.08 24.412ZM129 26.1581C129 26.6149 128.825 26.9806 128.475 27.2552C128.15 27.5131 127.739 27.6423 127.244 27.6423C126.696 27.6423 126.262 27.5231 125.938 27.2847C125.564 27.0116 125.376 26.5995 125.376 26.053C125.376 25.5541 125.589 25.1857 126.015 24.9473C125.876 24.8381 125.763 24.6809 125.676 24.4764C125.588 24.2733 125.544 24.0673 125.544 23.8583C125.544 23.396 125.72 23.0346 126.07 22.7738C126.384 22.5439 126.78 22.4292 127.26 22.4292C127.691 22.4292 128.068 22.554 128.391 22.8018C128.747 23.071 128.924 23.4142 128.924 23.8319C128.924 24.0463 128.871 24.2607 128.765 24.4764C128.658 24.7007 128.518 24.8716 128.344 24.9894C128.782 25.2389 129 25.6283 129 26.1581ZM128.084 23.8795C128.084 23.6917 128.007 23.5279 127.852 23.3919C127.698 23.2545 127.509 23.1859 127.285 23.1859C127.024 23.1859 126.82 23.2377 126.67 23.3413C126.52 23.4466 126.444 23.5811 126.444 23.7492C126.444 23.9649 126.601 24.1556 126.916 24.3195C127.058 24.3966 127.324 24.4976 127.712 24.6235C127.96 24.4149 128.084 24.1682 128.084 23.8795ZM128.016 26.2225C128.016 25.9732 127.852 25.7672 127.524 25.6045C127.26 25.5009 126.993 25.3972 126.726 25.2963C126.426 25.5023 126.276 25.7728 126.276 26.1077C126.276 26.3376 126.353 26.5253 126.506 26.6669C126.672 26.8238 126.906 26.9021 127.209 26.9021C127.747 26.9021 128.016 26.6751 128.016 26.2225Z" fill="#FBFBFD"/>
<path fill-rule="evenodd" clip-rule="evenodd" d="M109.204 3.21729C109.77 3.21729 110.328 3.25412 110.875 3.32448L109.204 7.91629C104.656 7.91629 100.969 11.603 100.969 16.1512C100.969 20.6994 104.656 24.3861 109.204 24.3861C113.752 24.3861 117.439 20.6994 117.439 16.1512V16.1509L122.031 14.4797C122.101 15.027 122.138 15.5846 122.138 16.1512C122.138 23.2946 116.347 29.0851 109.204 29.0851C102.061 29.0851 96.2701 23.2946 96.2701 16.1512C96.2701 9.00783 102.061 3.21729 109.204 3.21729Z" fill="#FBFBFD"/>
<path fill-rule="evenodd" clip-rule="evenodd" d="M114.2 0C120.007 0.749189 124.606 5.3487 125.356 11.1553L120.764 12.8264C120.764 8.27855 117.077 4.59182 112.529 4.59182L114.2 0Z" fill="#E11D3B"/>
</svg>
