<svg width="25" height="30" viewBox="0 0 25 30" fill="none" xmlns="http://www.w3.org/2000/svg">
<path d="M18 13.8754C18 12.2841 17.3679 10.758 16.2426 9.63279C15.1174 8.50757 13.5913 7.87543 12 7.87543C10.4087 7.87543 8.88258 8.50757 7.75736 9.63279C6.63214 10.758 6 12.2841 6 13.8754C6 20.8754 3 22.8754 3 22.8754H21C21 22.8754 18 20.8754 18 13.8754Z" stroke="#4F4F4F" stroke-width="2" stroke-linecap="round" stroke-linejoin="round"/>
<path d="M13.73 26.8754C13.5542 27.1785 13.3019 27.4301 12.9982 27.605C12.6946 27.7798 12.3504 27.8719 12 27.8719C11.6496 27.8719 11.3054 27.7798 11.0018 27.605C10.6982 27.4301 10.4458 27.1785 10.27 26.8754" stroke="#4F4F4F" stroke-width="2" stroke-linecap="round" stroke-linejoin="round"/>
<circle cx="19" cy="6.87543" r="6" fill="#E78137"/>
</svg>
