<svg width="24" height="29" viewBox="0 0 24 29" fill="none" xmlns="http://www.w3.org/2000/svg">
<path d="M18 12.8754C18 11.2841 17.3679 9.758 16.2426 8.63279C15.1174 7.50757 13.5913 6.87543 12 6.87543C10.4087 6.87543 8.88258 7.50757 7.75736 8.63279C6.63214 9.758 6 11.2841 6 12.8754C6 19.8754 3 21.8754 3 21.8754H21C21 21.8754 18 19.8754 18 12.8754Z" stroke="#4F4F4F" stroke-width="2" stroke-linecap="round" stroke-linejoin="round"/>
<path d="M13.73 25.8754C13.5542 26.1785 13.3019 26.4301 12.9982 26.605C12.6946 26.7798 12.3504 26.8719 12 26.8719C11.6496 26.8719 11.3054 26.7798 11.0018 26.605C10.6982 26.4301 10.4458 26.1785 10.27 25.8754" stroke="#4F4F4F" stroke-width="2" stroke-linecap="round" stroke-linejoin="round"/>
</svg>
