<svg width="253" height="253" viewBox="0 0 253 253" fill="none" xmlns="http://www.w3.org/2000/svg">
<g opacity="0.73">
<path d="M46.1323 34.6404C46.1323 23.2554 35.8453 14.2739 24.0555 16.4851C16.6426 17.8766 10.7325 23.9334 9.43208 31.3615C8.62248 36.0066 9.57882 40.3733 11.699 43.9811H11.6888L11.7394 44.052C12.4478 45.2461 13.3384 46.1013 14.234 47.3561L24.9713 61.5798C26.3072 63.3508 28.9637 63.3508 30.2995 61.5798L40.8597 47.594C40.8597 47.594 42.8281 45.2461 43.5466 44.0368L43.5871 43.9862H43.582C45.1911 41.2386 46.1323 38.0559 46.1323 34.6404ZM27.638 42.6959C23.1447 42.6959 19.5015 39.0527 19.5015 34.5594C19.5015 30.0661 23.1447 26.4229 27.638 26.4229C32.1312 26.4229 35.7744 30.0661 35.7744 34.5594C35.7795 39.0527 32.1363 42.6959 27.638 42.6959Z" fill="#F5F5F5"/>
<path d="M245.592 146.8C245.592 141.78 241.059 137.824 235.862 138.795C232.593 139.407 229.987 142.079 229.416 145.353C229.056 147.402 229.481 149.325 230.412 150.919H230.407L230.433 150.949C230.746 151.475 231.136 151.855 231.531 152.406L236.262 158.676C236.849 159.455 238.023 159.455 238.61 158.676L243.265 152.508C243.265 152.508 244.135 151.47 244.449 150.939L244.464 150.919H244.459C245.183 149.709 245.592 148.308 245.592 146.8ZM237.441 150.352C235.457 150.352 233.853 148.748 233.853 146.765C233.853 144.781 235.457 143.177 237.441 143.177C239.424 143.177 241.028 144.781 241.028 146.765C241.028 148.743 239.424 150.352 237.441 150.352Z" fill="#F5F5F5"/>
<path d="M217.482 211.1C225.454 203.129 225.454 190.205 217.482 182.234C209.511 174.262 196.587 174.262 188.615 182.234C180.644 190.205 180.644 203.129 188.615 211.1C196.587 219.072 209.511 219.072 217.482 211.1Z" fill="#F5F5F5"/>
<path d="M203.053 213.658C193.687 213.658 186.062 206.037 186.062 196.666C186.062 187.295 193.682 179.675 203.053 179.675C212.424 179.675 220.044 187.295 220.044 196.666C220.044 206.037 212.419 213.658 203.053 213.658ZM203.053 182.584C195.286 182.584 188.971 188.899 188.971 196.666C188.971 204.433 195.286 210.748 203.053 210.748C210.82 210.748 217.135 204.433 217.135 196.666C217.135 188.899 210.815 182.584 203.053 182.584Z" fill="white"/>
<path d="M202.936 202.475C199.486 202.475 196.677 199.667 196.677 196.216C196.677 192.765 199.486 189.957 202.936 189.957C206.387 189.957 209.196 192.765 209.196 196.216C209.196 199.672 206.387 202.475 202.936 202.475ZM202.936 192.872C201.09 192.872 199.587 194.374 199.587 196.221C199.587 198.068 201.09 199.571 202.936 199.571C204.783 199.571 206.286 198.068 206.286 196.221C206.286 194.374 204.783 192.872 202.936 192.872Z" fill="white"/>
<path d="M202.937 196.222H195.028L196.409 198.661L177.793 207.192L178.421 208.239L197.097 199.804L198.378 202.228L202.937 196.222Z" fill="#E0E0E0"/>
<path d="M177.793 207.192L177.596 206.999C176.619 206.048 175.208 205.694 173.902 206.079L166.474 208.239L170.608 210.056L168.948 214.473L175.916 211.989C177.49 211.427 178.507 209.904 178.421 208.239L177.793 207.192Z" fill="#E0E0E0"/>
<path d="M87.7155 211.472C87.7155 211.467 87.7711 211.452 87.8672 211.422C87.9786 211.391 88.1203 211.346 88.3075 211.295C88.7022 211.184 89.2689 211.022 89.9975 210.814C91.4801 210.4 93.6205 209.797 96.3225 209.038L96.2669 209.14C95.943 208.057 95.5787 206.837 95.1891 205.537L95.1688 205.476L95.2194 205.436C96.8032 204.115 98.3668 202.374 99.6318 200.244C100.264 199.176 100.765 197.982 101.109 196.707C101.469 195.432 101.519 194.041 101.347 192.659C100.917 189.901 99.5154 187.093 97.1878 185.069C94.8905 183.03 91.8292 181.679 88.5757 181.36C86.1469 181.122 83.7332 181.684 81.6586 182.742C79.5537 183.759 77.7928 185.297 76.5075 187.078C75.2122 188.864 74.5291 190.949 74.2913 192.968C74.2609 193.479 74.18 193.98 74.1951 194.481C74.2103 194.982 74.2255 195.473 74.2356 195.963C74.3267 196.935 74.4836 197.876 74.7416 198.767C75.0098 199.652 75.3539 200.487 75.7688 201.256C76.1938 202.02 76.6948 202.708 77.2261 203.326C78.3038 204.56 79.5436 205.481 80.7478 206.169C83.1766 207.546 85.4283 208.102 87.0222 208.34L87.0577 208.345L87.0627 208.381C87.2752 209.382 87.4321 210.152 87.5434 210.678C87.594 210.931 87.6345 211.128 87.6649 211.27C87.7053 211.401 87.7155 211.467 87.7155 211.472C87.7155 211.477 87.6952 211.412 87.6649 211.285C87.6294 211.143 87.5839 210.956 87.5232 210.708C87.3967 210.177 87.2145 209.403 86.9767 208.396L87.0222 208.436C85.403 208.219 83.1412 207.687 80.6719 206.316C79.4474 205.628 78.1824 204.702 77.0793 203.457C76.5329 202.835 76.0218 202.137 75.5816 201.357C75.1515 200.578 74.7973 199.728 74.524 198.827C74.2558 197.922 74.0939 196.965 73.9978 195.979C73.9826 195.483 73.9674 194.982 73.9472 194.476C73.932 193.97 74.013 193.459 74.0433 192.937C74.2761 190.883 74.9693 188.748 76.29 186.921C77.6005 185.1 79.3968 183.531 81.5372 182.494C83.6421 181.411 86.1216 180.839 88.601 181.077C91.9203 181.401 95.0322 182.777 97.3699 184.857C98.5438 185.894 99.5154 187.118 100.209 188.454C100.411 188.773 100.543 189.127 100.689 189.466C100.836 189.805 100.993 190.144 101.089 190.499C101.195 190.848 101.312 191.197 101.408 191.546C101.474 191.905 101.534 192.259 101.6 192.614C101.772 194.03 101.716 195.457 101.342 196.758C100.988 198.058 100.472 199.268 99.824 200.35C98.5287 202.506 96.955 204.247 95.3358 205.577L95.3662 205.476C95.7457 206.782 96.0999 208.001 96.4187 209.089L96.444 209.17L96.363 209.19C93.6306 209.919 91.4598 210.496 89.9621 210.89C89.2334 211.078 88.6718 211.229 88.2771 211.331C88.095 211.376 87.9533 211.412 87.847 211.437C87.761 211.467 87.7104 211.477 87.7155 211.472Z" fill="#E0E0E0"/>
<path d="M97.1272 211.478C97.1474 211.554 95.1791 212.156 92.73 212.824C90.281 213.497 88.2772 213.977 88.257 213.906C88.2368 213.831 90.2051 213.228 92.6541 212.56C95.1032 211.887 97.1069 211.407 97.1272 211.478Z" fill="#E0E0E0"/>
<path d="M95.1741 215.616C95.2044 215.682 94.5416 216.021 93.651 216.229C92.7655 216.441 92.0217 216.446 92.0166 216.37C92.0116 216.289 92.725 216.168 93.5852 215.955C94.4505 215.758 95.1437 215.546 95.1741 215.616Z" fill="#E0E0E0"/>
<path d="M89.5217 210.976C89.5167 210.976 89.5015 210.931 89.4712 210.834C89.4408 210.723 89.4003 210.581 89.3548 210.404C89.2536 210.005 89.1119 209.453 88.9297 208.75C88.5654 207.287 88.0493 205.208 87.4168 202.647C87.098 201.357 86.7539 199.945 86.3845 198.427C86.2935 198.058 86.1619 197.683 85.9393 197.385C85.7318 197.076 85.3371 196.914 85.0183 197.076C84.6996 197.233 84.5478 197.653 84.5427 198.043C84.5326 198.437 84.7249 198.822 84.993 199.131C85.5446 199.758 86.4706 200.026 87.3358 199.91C88.2112 199.804 88.9854 199.181 89.3902 198.356C89.8051 197.537 89.9012 196.54 89.6837 195.614C89.5723 195.153 89.3902 194.688 89.0562 194.374C88.7374 194.066 88.196 193.954 87.8418 194.207C87.4927 194.46 87.432 195.012 87.6141 195.417C87.7963 195.842 88.1707 196.165 88.5603 196.454C89.3345 197.026 90.2251 197.451 91.146 197.522C91.6014 197.557 92.0669 197.496 92.4717 197.324C92.8765 197.142 93.2408 196.864 93.509 196.52C93.7772 196.176 93.9543 195.766 93.9745 195.346C93.9998 194.926 93.8683 194.511 93.59 194.212C93.3218 193.914 92.917 193.742 92.5527 193.853C92.1884 193.959 91.9151 194.293 91.7836 194.653C91.5306 195.396 91.7532 196.226 91.8443 196.985C92.0872 198.523 92.3655 199.95 92.6185 201.256C93.1396 203.841 93.5647 205.941 93.8632 207.419C94.0049 208.132 94.1213 208.694 94.2022 209.094C94.2377 209.271 94.263 209.418 94.2832 209.529C94.2984 209.63 94.3085 209.681 94.3034 209.681C94.2984 209.681 94.2832 209.635 94.2579 209.534C94.2275 209.423 94.1921 209.281 94.1466 209.104C94.0504 208.704 93.9239 208.148 93.757 207.439C93.4281 205.992 92.9575 203.892 92.4262 201.291C92.1631 199.991 91.8746 198.564 91.6166 197.021C91.5609 196.631 91.4951 196.241 91.4547 195.837C91.4142 195.432 91.4091 194.992 91.5559 194.572C91.7077 194.162 92.0113 193.762 92.4818 193.615C92.9575 193.463 93.4685 193.691 93.7772 194.04C94.1061 194.389 94.263 194.885 94.2326 195.361C94.2124 195.842 94.01 196.307 93.7165 196.682C93.423 197.066 93.0283 197.37 92.578 197.572C92.1226 197.769 91.6166 197.83 91.1258 197.795C90.1289 197.719 89.1979 197.274 88.3934 196.677C87.9936 196.383 87.5838 196.034 87.3611 195.528C87.1435 195.037 87.1891 194.359 87.6799 193.985C88.1859 193.635 88.8488 193.802 89.2434 194.177C89.6482 194.556 89.8355 195.067 89.9518 195.553C90.1846 196.545 90.0834 197.597 89.6331 198.483C89.203 199.368 88.3428 200.062 87.3763 200.178C86.4301 200.305 85.4282 200.016 84.8058 199.308C84.5073 198.964 84.2846 198.513 84.2948 198.048C84.3049 197.603 84.4668 197.097 84.9121 196.869C85.1297 196.757 85.3877 196.757 85.6053 196.838C85.833 196.919 86 197.081 86.1315 197.253C86.3845 197.602 86.5161 198.002 86.6122 198.387C86.9715 199.905 87.3055 201.322 87.6141 202.612C88.2163 205.182 88.702 207.267 89.041 208.734C89.203 209.443 89.3244 210 89.4155 210.404C89.4509 210.581 89.4813 210.728 89.5066 210.839C89.5217 210.925 89.5268 210.976 89.5217 210.976Z" fill="#E0E0E0"/>
<path d="M96.8034 213.37C96.8237 213.446 95.2298 213.942 93.2412 214.488C91.2526 215.03 89.6283 215.414 89.6081 215.338C89.5879 215.262 91.1818 214.766 93.1703 214.22C95.1589 213.678 96.7832 213.299 96.8034 213.37Z" fill="#E0E0E0"/>
<path d="M234.349 236.737C234.349 236.808 186.056 236.869 126.505 236.869C66.9288 236.869 18.6514 236.808 18.6514 236.737C18.6514 236.666 66.9288 236.605 126.505 236.605C186.061 236.605 234.349 236.661 234.349 236.737Z" fill="#263238"/>
<path d="M225.438 33.1943H27.668V45.8646H225.438V33.1943Z" fill="#E0E0E0"/>
<path d="M225.408 57.502H27.6377V168.417H225.408V57.502Z" fill="white"/>
<path d="M27.668 45.7735H54.825L57.5119 37.9355H101.534L104.221 45.7735H225.438V57.7707H27.668V45.7735Z" fill="#EBEBEB"/>
<path d="M34.1955 38.2484C34.1955 39.0681 33.5276 39.736 32.7079 39.736C31.8881 39.736 31.2202 39.0681 31.2202 38.2484C31.2202 37.4287 31.8881 36.7607 32.7079 36.7607C33.5326 36.7607 34.1955 37.4236 34.1955 38.2484Z" fill="#263238"/>
<path d="M38.7951 38.2484C38.7951 39.0681 38.1272 39.736 37.3075 39.736C36.4877 39.736 35.8198 39.0681 35.8198 38.2484C35.8198 37.4287 36.4877 36.7607 37.3075 36.7607C38.1322 36.7607 38.7951 37.4236 38.7951 38.2484Z" fill="#263238"/>
<path d="M43.3947 38.2484C43.3947 39.0681 42.7268 39.736 41.9071 39.736C41.0874 39.736 40.4194 39.0681 40.4194 38.2484C40.4194 37.4287 41.0874 36.7607 41.9071 36.7607C42.7319 36.7607 43.3947 37.4236 43.3947 38.2484Z" fill="#263238"/>
<path d="M203.579 55.3818H67.895C65.8153 55.3818 64.1304 53.6968 64.1304 51.6172C64.1304 49.5375 65.8153 47.8525 67.895 47.8525H203.579C205.659 47.8525 207.344 49.5375 207.344 51.6172C207.344 53.6968 205.659 55.3818 203.579 55.3818Z" fill="#FAFAFA"/>
<path d="M71.1438 52.1187V53.3888H70.5012V52.2149C70.5012 51.8556 70.3342 51.6886 70.0509 51.6886C69.7422 51.6886 69.5196 51.8809 69.5196 52.2857V53.3837H68.877V50.3174H69.5196V51.3901C69.6916 51.2181 69.9396 51.127 70.228 51.127C70.7492 51.1371 71.1438 51.4407 71.1438 52.1187Z" fill="#E0E0E0"/>
<path d="M73.1577 53.2817C73.0261 53.3778 72.8288 53.4234 72.6314 53.4234C72.1052 53.4234 71.8016 53.1552 71.8016 52.6239V51.7131H71.4575V51.2172H71.8016V50.6758H72.4442V51.2172H72.9958V51.7131H72.4442V52.6188C72.4442 52.8111 72.5454 52.9123 72.7225 52.9123C72.8187 52.9123 72.9148 52.8819 72.9806 52.8313L73.1577 53.2817Z" fill="#E0E0E0"/>
<path d="M74.9087 53.2817C74.7771 53.3778 74.5798 53.4234 74.3824 53.4234C73.8562 53.4234 73.5526 53.1552 73.5526 52.6239V51.7131H73.2085V51.2172H73.5526V50.6758H74.1952V51.2172H74.7467V51.7131H74.1952V52.6188C74.1952 52.8111 74.2964 52.9123 74.4735 52.9123C74.5696 52.9123 74.6658 52.8819 74.7316 52.8313L74.9087 53.2817Z" fill="#E0E0E0"/>
<path d="M77.6916 52.2803C77.6916 52.9786 77.2059 53.4238 76.5835 53.4238C76.3052 53.4238 76.0775 53.3378 75.9156 53.1557V54.193H75.2729V51.1671H75.8903V51.4251C76.0522 51.2329 76.29 51.1367 76.5886 51.1367C77.2109 51.1367 77.6916 51.582 77.6916 52.2803ZM77.0389 52.2803C77.0389 51.8957 76.796 51.663 76.4722 51.663C76.1483 51.663 75.9054 51.8957 75.9054 52.2803C75.9054 52.6648 76.1483 52.8976 76.4722 52.8976C76.796 52.8976 77.0389 52.6648 77.0389 52.2803Z" fill="#E0E0E0"/>
<path d="M77.9648 51.5363C77.9648 51.2985 78.1419 51.1416 78.3646 51.1416C78.5872 51.1416 78.7643 51.2985 78.7643 51.5363C78.7643 51.7741 78.5872 51.9411 78.3646 51.9411C78.1419 51.9411 77.9648 51.769 77.9648 51.5363ZM77.9648 53.0189C77.9648 52.781 78.1419 52.6242 78.3646 52.6242C78.5872 52.6242 78.7643 52.781 78.7643 53.0189C78.7643 53.2567 78.5872 53.4237 78.3646 53.4237C78.1419 53.4237 77.9648 53.2567 77.9648 53.0189Z" fill="#E0E0E0"/>
<path d="M80.3528 49.9121H80.9246L79.5635 53.8033H78.9917L80.3528 49.9121Z" fill="#E0E0E0"/>
<path d="M81.6736 49.9121H82.2454L80.8843 53.8033H80.3125L81.6736 49.9121Z" fill="#E0E0E0"/>
<path d="M203.458 77.4489H85.241C81.5523 77.4489 78.5669 74.4584 78.5669 70.7747C78.5669 67.091 81.5574 64.1006 85.241 64.1006H203.458C207.147 64.1006 210.132 67.091 210.132 70.7747C210.132 74.4635 207.141 77.4489 203.458 77.4489Z" fill="#FAFAFA"/>
<path d="M203.458 77.4484C203.442 77.3928 204.48 77.5699 206.19 76.8311C207.02 76.4415 208.012 75.7989 208.801 74.6958C209.196 74.1493 209.55 73.5067 209.783 72.7679C210.01 72.0292 210.122 71.1943 210.061 70.3239C210 69.4536 209.762 68.5428 209.312 67.6877C208.862 66.8275 208.179 66.0432 207.323 65.4157C206.468 64.7832 205.406 64.3683 204.267 64.2216C203.695 64.1558 203.103 64.171 202.501 64.171C201.899 64.171 201.282 64.171 200.659 64.176C195.655 64.1811 189.963 64.1862 183.663 64.1963C158.474 64.2064 123.682 64.2216 85.256 64.2368C84.0821 64.257 82.9031 64.5454 81.9012 65.1627C80.8892 65.7548 80.0695 66.6403 79.4977 67.6523C78.3794 69.6965 78.4503 72.3277 79.7102 74.2606C80.3124 75.2372 81.1928 76.0266 82.1896 76.568C83.2016 77.0942 84.33 77.3573 85.4736 77.327C87.7759 77.327 90.063 77.327 92.3299 77.327C101.392 77.332 110.131 77.332 118.46 77.3371C135.112 77.3472 150.105 77.3573 162.699 77.3675C175.289 77.3826 185.479 77.3978 192.523 77.4079C196.04 77.4181 198.772 77.4282 200.634 77.4332C201.56 77.4383 202.263 77.4434 202.744 77.4484C203.215 77.4383 203.458 77.4484 203.458 77.4484C203.458 77.4484 203.215 77.4585 202.739 77.4636C202.258 77.4687 201.555 77.4687 200.629 77.4788C198.772 77.4838 196.04 77.494 192.518 77.5041C185.469 77.5142 175.284 77.5294 162.694 77.5446C150.1 77.5547 135.107 77.5597 118.455 77.5749C110.126 77.5749 101.387 77.58 92.3248 77.585C90.0579 77.585 87.7759 77.585 85.4685 77.585C84.2996 77.6205 83.1105 77.3422 82.0631 76.7957C81.0258 76.234 80.1049 75.4143 79.4825 74.3972C78.172 72.3884 78.0961 69.656 79.2599 67.5258C79.8519 66.4733 80.707 65.5524 81.7595 64.9401C82.7968 64.2975 84.0264 63.9939 85.2459 63.9736C123.672 63.9888 158.464 64.004 183.653 64.0141C189.947 64.0192 195.645 64.0293 200.649 64.0344C201.277 64.0344 201.889 64.0344 202.491 64.0394C203.093 64.0394 203.69 64.0293 204.272 64.0951C205.436 64.2469 206.519 64.6719 207.384 65.3196C208.254 65.9572 208.948 66.7617 209.403 67.6371C209.858 68.5125 210.096 69.4384 210.157 70.3239C210.218 71.2094 210.101 72.0545 209.864 72.8033C209.626 73.5522 209.261 74.205 208.862 74.7514C208.057 75.8596 207.045 76.5022 206.21 76.8868C205.355 77.2663 204.647 77.3675 204.176 77.4282C203.7 77.4484 203.458 77.4484 203.458 77.4484Z" fill="#263238"/>
<path d="M87.9531 72.1962L88.2061 71.6346C88.4743 71.8319 88.8791 71.9686 89.2637 71.9686C89.7039 71.9686 89.881 71.8218 89.881 71.6245C89.881 71.0223 88.0138 71.4373 88.0138 70.2431C88.0138 69.6966 88.4541 69.2412 89.3649 69.2412C89.7697 69.2412 90.1795 69.3373 90.4781 69.5246L90.2504 70.0913C89.9518 69.9193 89.6432 69.8383 89.3598 69.8383C88.9196 69.8383 88.7475 70.0053 88.7475 70.2077C88.7475 70.7997 90.6147 70.3898 90.6147 71.5688C90.6147 72.1052 90.1694 72.5656 89.2535 72.5656C88.7475 72.5707 88.2365 72.4189 87.9531 72.1962Z" fill="#E0E0E0"/>
<path d="M93.4836 71.483H91.6165C91.6873 71.7917 91.9454 71.9789 92.3249 71.9789C92.588 71.9789 92.7752 71.903 92.9422 71.7411L93.3217 72.156C93.094 72.4191 92.7499 72.5557 92.3046 72.5557C91.4495 72.5557 90.8979 72.0194 90.8979 71.2857C90.8979 70.5469 91.4596 70.0156 92.2136 70.0156C92.9371 70.0156 93.4988 70.5014 93.4988 71.2958C93.4988 71.3464 93.4887 71.4223 93.4836 71.483ZM91.6063 71.063H92.8208C92.7702 70.7493 92.5374 70.5469 92.2136 70.5469C91.8897 70.552 91.6569 70.7493 91.6063 71.063Z" fill="#E0E0E0"/>
<path d="M96.0894 71.1031V72.5098H95.4214V72.2011C95.2899 72.4237 95.0318 72.5452 94.6675 72.5452C94.0907 72.5452 93.7466 72.2264 93.7466 71.7963C93.7466 71.3611 94.0552 71.0575 94.8041 71.0575H95.3708C95.3708 70.7489 95.1887 70.5718 94.8041 70.5718C94.541 70.5718 94.2728 70.6578 94.0957 70.7995L93.8377 70.2985C94.1058 70.1063 94.5056 70 94.9003 70C95.6542 70.0101 96.0894 70.3593 96.0894 71.1031ZM95.3759 71.7356V71.4826H94.8851C94.5511 71.4826 94.4449 71.6091 94.4449 71.771C94.4449 71.9481 94.5967 72.0695 94.8497 72.0695C95.0875 72.0695 95.2899 71.9582 95.3759 71.7356Z" fill="#E0E0E0"/>
<path d="M98.2705 70.0098V70.6726C98.2098 70.6676 98.1642 70.6625 98.1086 70.6625C97.7139 70.6625 97.4508 70.8801 97.4508 71.3507V72.5145H96.7373V70.0452H97.4204V70.369C97.5975 70.1312 97.891 70.0098 98.2705 70.0098Z" fill="#E0E0E0"/>
<path d="M98.4932 71.2798C98.4932 70.536 99.0649 70.0098 99.8695 70.0098C100.386 70.0098 100.795 70.2324 100.973 70.6372L100.416 70.9357C100.284 70.703 100.087 70.5967 99.8594 70.5967C99.4951 70.5967 99.2117 70.8497 99.2117 71.2798C99.2117 71.7099 99.4951 71.9629 99.8594 71.9629C100.082 71.9629 100.279 71.8617 100.416 71.6239L100.973 71.9275C100.795 72.3222 100.386 72.5499 99.8695 72.5499C99.0649 72.5499 98.4932 72.0236 98.4932 71.2798Z" fill="#E0E0E0"/>
<path d="M103.892 71.0981V72.5099H103.178V71.2094C103.178 70.8097 102.996 70.6275 102.678 70.6275C102.333 70.6275 102.086 70.8401 102.086 71.2904V72.5099H101.372V69.1045H102.086V70.2986C102.278 70.1064 102.551 70.0052 102.87 70.0052C103.452 70.0102 103.892 70.3492 103.892 71.0981Z" fill="#E0E0E0"/>
<path d="M105.663 72.1004C105.663 71.8322 105.86 71.6602 106.108 71.6602C106.356 71.6602 106.554 71.8322 106.554 72.1004C106.554 72.3635 106.356 72.5507 106.108 72.5507C105.86 72.5507 105.663 72.3635 105.663 72.1004Z" fill="#E0E0E0"/>
<path d="M106.867 72.1004C106.867 71.8322 107.065 71.6602 107.312 71.6602C107.56 71.6602 107.758 71.8322 107.758 72.1004C107.758 72.3635 107.56 72.5507 107.312 72.5507C107.065 72.5507 106.867 72.3635 106.867 72.1004Z" fill="#E0E0E0"/>
<path d="M108.066 72.1004C108.066 71.8322 108.264 71.6602 108.512 71.6602C108.76 71.6602 108.957 71.8322 108.957 72.1004C108.957 72.3635 108.76 72.5507 108.512 72.5507C108.264 72.5507 108.066 72.3635 108.066 72.1004Z" fill="#E0E0E0"/>
<path d="M64.8036 89.0661C64.8036 89.137 60.0573 89.1977 54.2079 89.1977C48.3535 89.1977 43.6123 89.137 43.6123 89.0661C43.6123 88.9953 48.3535 88.9346 54.2079 88.9346C60.0573 88.9346 64.8036 88.9953 64.8036 89.0661Z" fill="black"/>
<path d="M65.6334 95.123H43.6123V117.144H65.6334V95.123Z" fill="#FDA95F"/>
<path d="M199.44 100.315C199.44 100.386 172.106 100.447 138.396 100.447C104.671 100.447 77.3472 100.386 77.3472 100.315C77.3472 100.244 104.676 100.184 138.396 100.184C172.106 100.184 199.44 100.239 199.44 100.315Z" fill="black"/>
<path d="M110.743 108.603C110.743 108.674 103.543 108.735 94.6575 108.735C85.7722 108.735 78.5718 108.674 78.5718 108.603C78.5718 108.532 85.7722 108.472 94.6575 108.472C103.538 108.472 110.743 108.532 110.743 108.603Z" fill="black"/>
<path d="M179.929 116.294C179.929 116.365 157.235 116.426 129.253 116.426C101.256 116.426 78.5718 116.365 78.5718 116.294C78.5718 116.223 101.261 116.162 129.253 116.162C157.235 116.157 179.929 116.218 179.929 116.294Z" fill="#E0E0E0"/>
<path d="M64.8036 128.509C64.8036 128.58 60.0573 128.641 54.2079 128.641C48.3535 128.641 43.6123 128.58 43.6123 128.509C43.6123 128.439 48.3535 128.378 54.2079 128.378C60.0573 128.378 64.8036 128.439 64.8036 128.509Z" fill="black"/>
<path d="M65.6334 134.566H43.6123V156.588H65.6334V134.566Z" fill="#FDA95F"/>
<path d="M206.696 139.753C206.696 139.823 177.738 139.884 142.024 139.884C106.3 139.884 77.3472 139.823 77.3472 139.753C77.3472 139.682 106.3 139.621 142.024 139.621C177.738 139.621 206.696 139.682 206.696 139.753Z" fill="black"/>
<path d="M110.743 148.046C110.743 148.116 103.543 148.177 94.6575 148.177C85.7722 148.177 78.5718 148.116 78.5718 148.046C78.5718 147.975 85.7722 147.914 94.6575 147.914C103.538 147.914 110.743 147.975 110.743 148.046Z" fill="black"/>
<path d="M197.578 155.732C197.578 155.803 170.932 155.864 138.078 155.864C105.208 155.864 78.5669 155.803 78.5669 155.732C78.5669 155.661 105.203 155.601 138.078 155.601C170.937 155.601 197.578 155.661 197.578 155.732Z" fill="#E0E0E0"/>
<path d="M225.438 168.685C225.438 167.82 225.398 115.662 225.332 33.1989L225.438 33.3052C170.694 33.3103 102.03 33.3204 27.6834 33.3305H27.6682L27.7997 33.1989C27.7947 81.5574 27.7896 127.512 27.7896 168.685L27.6682 168.564C144.326 168.635 224.366 168.68 225.438 168.685C224.366 168.685 144.326 168.736 27.6682 168.807H27.5467V168.685C27.5417 127.507 27.5417 81.5574 27.5366 33.1989V33.0674H27.6682H27.6834C102.03 33.0775 170.694 33.0876 225.438 33.0927H225.545V33.1989C225.484 115.657 225.438 167.815 225.438 168.685Z" fill="#263238"/>
<path d="M96.1908 43.0105C96.1908 43.0813 89.208 43.142 80.5959 43.142C71.9787 43.142 65.001 43.0813 65.001 43.0105C65.001 42.9396 71.9838 42.8789 80.5959 42.8789C89.208 42.8789 96.1908 42.9396 96.1908 43.0105Z" fill="black"/>
<path d="M68.0573 67.916H40.3589V76.26H68.0573V67.916Z" fill="#455A64"/>
<path d="M117.104 89.7693C117.104 89.8401 108.491 89.9008 97.8704 89.9008C87.2444 89.9008 78.6323 89.8401 78.6323 89.7693C78.6323 89.6984 87.2444 89.6377 97.8704 89.6377C108.491 89.6377 117.104 89.6984 117.104 89.7693Z" fill="#FF725E"/>
<path d="M117.104 128.509C117.104 128.58 108.491 128.641 97.8704 128.641C87.2444 128.641 78.6323 128.58 78.6323 128.509C78.6323 128.439 87.2444 128.378 97.8704 128.378C108.491 128.378 117.104 128.439 117.104 128.509Z" fill="#FF725E"/>
<path d="M200.912 72.9955C199.141 72.9955 197.699 71.5534 197.699 69.7824C197.699 68.0114 199.141 66.5693 200.912 66.5693C202.683 66.5693 204.125 68.0114 204.125 69.7824C204.125 71.5534 202.683 72.9955 200.912 72.9955ZM200.912 67.0703C199.42 67.0703 198.205 68.2847 198.205 69.7774C198.205 71.2701 199.42 72.4845 200.912 72.4845C202.405 72.4845 203.619 71.2701 203.619 69.7774C203.619 68.2847 202.405 67.0703 200.912 67.0703Z" fill="#FDA95F"/>
<path d="M204.864 74.4226C204.798 74.4226 204.737 74.3973 204.687 74.3518L202.592 72.2721C202.491 72.176 202.491 72.0141 202.592 71.9129C202.688 71.8167 202.85 71.8117 202.951 71.9129L205.046 73.9925C205.147 74.0887 205.147 74.2506 205.046 74.3518C204.99 74.3973 204.925 74.4226 204.864 74.4226Z" fill="#FDA95F"/>
<path d="M151.739 108.036C151.739 108.107 143.451 108.167 133.235 108.167C123.014 108.167 114.726 108.107 114.726 108.036C114.726 107.965 123.009 107.904 133.235 107.904C143.456 107.904 151.739 107.96 151.739 108.036Z" fill="black"/>
<path d="M175.658 107.465C175.658 107.535 171.321 107.596 165.978 107.596C160.63 107.596 156.298 107.535 156.298 107.465C156.298 107.394 160.63 107.333 165.978 107.333C171.321 107.333 175.658 107.394 175.658 107.465Z" fill="black"/>
<path d="M151.562 148.046C151.562 148.116 143.274 148.177 133.058 148.177C122.837 148.177 114.548 148.116 114.548 148.046C114.548 147.975 122.832 147.914 133.058 147.914C143.279 147.914 151.562 147.975 151.562 148.046Z" fill="black"/>
<path d="M52.2294 158.459C48.1257 160.584 44.9784 164.248 42.7115 168.28C40.4497 172.313 38.9874 176.736 37.5453 181.128L36.2803 203.776C41.0569 195.65 44.8924 186.097 45.9246 176.726C44.8671 176.629 43.8045 176.538 42.747 176.442C44.8772 176.118 46.6685 174.575 47.807 172.743C48.9455 170.912 49.5324 168.802 50.1042 166.722C48.8139 166.914 47.5185 167.107 46.2282 167.299C49.2592 165.27 51.4603 162.031 52.2294 158.459Z" fill="#455A64"/>
<g opacity="0.3">
<path d="M52.2294 158.459C48.1257 160.584 44.9784 164.248 42.7115 168.28C40.4497 172.313 38.9874 176.736 37.5453 181.128L36.2803 203.776C41.0569 195.65 44.8924 186.097 45.9246 176.726C44.8671 176.629 43.8045 176.538 42.747 176.442C44.8772 176.118 46.6685 174.575 47.807 172.743C48.9455 170.912 49.5324 168.802 50.1042 166.722C48.8139 166.914 47.5185 167.107 46.2282 167.299C49.2592 165.27 51.4603 162.031 52.2294 158.459Z" fill="black"/>
</g>
<path d="M35.5719 209.079C35.5719 209.079 25.2039 196.667 25.3254 184.822H29.5151C29.5151 184.822 24.9661 181.831 25.3254 180.156C25.6846 178.482 25.8061 172.141 25.8061 172.141L29.6365 173.098C29.6365 173.098 26.7624 171.661 26.4032 169.389C26.0439 167.117 27.2431 156.587 27.2431 156.587C27.2431 156.587 31.9084 161.495 33.3455 166.52C34.7825 171.544 38.5522 177.409 37.4441 192.725C36.3309 208.037 35.5719 209.079 35.5719 209.079Z" fill="#455A64"/>
<path d="M40.8292 210.253C40.8292 210.253 52.0624 202.769 54.557 193.221L51.1921 192.305C51.1921 192.305 55.5032 190.893 55.5791 189.471C55.655 188.05 56.9453 182.919 56.9453 182.919L53.6563 182.853C53.6563 182.853 56.2774 182.327 57.0668 180.576C57.8511 178.825 59.197 170.097 59.197 170.097C59.197 170.097 54.3698 173.021 52.1181 176.746C49.8664 180.47 45.5502 184.361 43.091 196.92C40.6268 209.474 40.8292 210.253 40.8292 210.253Z" fill="#455A64"/>
<path d="M30.0718 167.405C30.0769 167.405 30.092 167.446 30.1123 167.532C30.1376 167.633 30.1679 167.759 30.2084 167.911C30.2894 168.265 30.4007 168.761 30.5424 169.384C30.8308 170.664 31.2154 172.521 31.6556 174.823C32.5411 179.428 33.5834 185.819 34.4082 192.923C35.2279 200.032 35.6682 206.494 35.8554 211.179C35.9515 213.522 36.0021 215.415 36.0122 216.725C36.0173 217.363 36.0173 217.869 36.0224 218.233C36.0224 218.395 36.0173 218.521 36.0173 218.628C36.0173 218.714 36.0123 218.759 36.0072 218.759C36.0021 218.759 35.9971 218.714 35.992 218.628C35.9869 218.526 35.9768 218.395 35.9718 218.238C35.9566 217.874 35.9363 217.368 35.911 216.73C35.8706 215.42 35.7896 213.527 35.6682 211.189C35.4303 206.514 34.9598 200.057 34.1451 192.953C33.3203 185.854 32.3083 179.463 31.4684 174.854C31.0534 172.551 30.6992 170.689 30.4361 169.404C30.3147 168.777 30.2186 168.281 30.1477 167.921C30.1224 167.765 30.0971 167.638 30.0819 167.537C30.0718 167.451 30.0667 167.405 30.0718 167.405Z" fill="#263238"/>
<path d="M34.135 216.679C34.135 216.679 24.6475 205.911 21.7026 199.404L23.929 198.453C22.3148 198.721 20.6653 198.028 19.4154 196.975C18.1656 195.923 17.2498 194.542 16.3491 193.175L19.2788 192.68C16.6122 191.931 14.2694 190.114 12.8779 187.721C16.3339 188.287 19.461 190.19 22.0416 192.563C24.1314 194.486 25.8973 196.717 27.5924 198.994C28.4222 200.108 29.1458 201.292 29.748 202.541C31.3368 205.841 34.14 212.727 34.135 216.679Z" fill="#455A64"/>
<path d="M54.7038 176.361C54.7089 176.361 54.6937 176.402 54.6634 176.473C54.6229 176.559 54.5773 176.66 54.5217 176.786C54.38 177.08 54.1928 177.48 53.9499 177.986C53.4439 179.023 52.7254 180.526 51.8601 182.393C50.1195 186.127 47.8222 191.334 45.5554 197.193C43.2935 203.058 41.4871 208.457 40.2626 212.389C39.6503 214.357 39.1696 215.951 38.8458 217.054C38.6839 217.59 38.5574 218.01 38.4612 218.324C38.4208 218.455 38.3853 218.562 38.355 218.653C38.3297 218.729 38.3145 218.764 38.3094 218.764C38.3044 218.764 38.3094 218.724 38.3297 218.648C38.3499 218.557 38.3803 218.445 38.4106 218.314C38.4916 218 38.6029 217.57 38.7446 217.029C39.0381 215.915 39.4935 214.311 40.0804 212.333C41.2594 208.381 43.0405 202.967 45.3074 197.097C47.5794 191.233 49.9019 186.026 51.6881 182.312C52.5786 180.455 53.3225 178.962 53.8538 177.94C54.1118 177.444 54.3193 177.055 54.4711 176.766C54.5369 176.645 54.5925 176.543 54.6381 176.463C54.6785 176.392 54.7038 176.361 54.7038 176.361Z" fill="#263238"/>
<path d="M34.9394 221.294C34.9191 221.294 34.8685 221.021 34.7876 220.525C34.7117 220.029 34.5852 219.311 34.4081 218.435C34.0589 216.674 33.4467 214.271 32.4802 211.711C31.5087 209.15 30.3803 206.939 29.4796 205.391C29.0293 204.616 28.6549 203.994 28.3816 203.569C28.1134 203.144 27.9718 202.901 27.9869 202.891C28.0021 202.881 28.1691 203.103 28.4676 203.508C28.7662 203.913 29.1659 204.52 29.6416 205.289C30.5878 206.823 31.7516 209.039 32.7282 211.614C33.6997 214.19 34.2866 216.624 34.5902 218.4C34.742 219.285 34.8432 220.009 34.8888 220.51C34.9394 221.016 34.9546 221.289 34.9394 221.294Z" fill="#263238"/>
<path d="M47.4581 218.759H26.6919V222.994H47.4581V218.759Z" fill="#FDA95F"/>
<path d="M28.6704 222.999L30.917 237.243H43.4659L45.5607 222.999H28.6704Z" fill="#FDA95F"/>
<path d="M46.1828 223C46.1828 223.071 42.2563 223.131 37.4088 223.131C32.5613 223.131 28.6348 223.071 28.6348 223C28.6348 222.929 32.5613 222.868 37.4088 222.868C42.2563 222.868 46.1828 222.924 46.1828 223Z" fill="#263238"/>
<path d="M136.63 226.733V237.243L157.821 237.142C157.669 235.012 146.036 230.761 146.036 230.761L146.269 226.738H136.63V226.733Z" fill="#455A64"/>
<g opacity="0.6">
<path d="M140.055 229.805C139.651 229.932 139.372 230.417 139.474 230.853C139.575 231.288 140.045 231.586 140.45 231.47C140.86 231.354 141.204 230.777 141.057 230.357C140.911 229.937 140.344 229.613 139.974 229.83" fill="white"/>
</g>
<path d="M136.63 237.238V235.558L156.865 235.795C156.865 235.795 157.917 236.428 157.826 237.131L136.63 237.238Z" fill="#263238"/>
<path d="M146.037 230.958C146.037 231.07 145.52 231.125 145.02 231.484C144.508 231.829 144.255 232.304 144.159 232.264C144.063 232.243 144.21 231.591 144.822 231.166C145.434 230.736 146.057 230.857 146.037 230.958Z" fill="#263238"/>
<path d="M148.814 231.93C148.84 232.037 148.395 232.229 148.055 232.694C147.701 233.15 147.62 233.651 147.514 233.646C147.418 233.666 147.337 233.028 147.772 232.457C148.202 231.88 148.809 231.829 148.814 231.93Z" fill="#263238"/>
<path d="M150.064 234.607C149.973 234.632 149.821 234.09 150.074 233.488C150.327 232.886 150.808 232.643 150.853 232.734C150.914 232.825 150.605 233.149 150.403 233.645C150.186 234.136 150.165 234.596 150.064 234.607Z" fill="#263238"/>
<path d="M145.829 227.968C145.788 228.07 145.313 227.923 144.731 227.973C144.149 228.014 143.699 228.226 143.643 228.13C143.582 228.054 144.017 227.64 144.705 227.594C145.394 227.543 145.879 227.882 145.829 227.968Z" fill="#263238"/>
<path d="M145.95 231.43C145.966 231.43 146.021 231.207 145.996 230.787C145.966 230.377 145.839 229.76 145.434 229.132C145.232 228.824 144.964 228.515 144.604 228.262C144.432 228.141 144.164 228.009 143.891 228.135C143.633 228.257 143.486 228.545 143.476 228.829C143.501 229.912 144.281 230.908 145.338 231.288C146.426 231.667 147.57 231.197 148.202 230.438C148.354 230.246 148.506 230.048 148.582 229.79C148.617 229.664 148.637 229.517 148.587 229.37C148.541 229.228 148.425 229.112 148.298 229.067C148.04 228.981 147.828 229.056 147.635 229.132C147.453 229.218 147.291 229.314 147.145 229.416C146.542 229.815 146.158 230.281 145.935 230.615C145.708 230.954 145.627 231.171 145.642 231.177C145.687 231.227 146.082 230.347 147.256 229.608C147.539 229.446 147.909 229.213 148.212 229.314C148.344 229.37 148.394 229.522 148.334 229.709C148.278 229.891 148.141 230.073 148 230.246C147.428 230.918 146.391 231.328 145.439 230.989C144.498 230.671 143.79 229.719 143.759 228.854C143.764 228.652 143.866 228.469 144.007 228.399C144.144 228.328 144.321 228.388 144.478 228.49C144.802 228.707 145.065 228.991 145.267 229.269C145.667 229.841 145.819 230.418 145.885 230.807C145.935 231.202 145.925 231.43 145.95 231.43Z" fill="#263238"/>
<path d="M128.883 228.252L129.242 230.959L129.004 237.056L121.06 237.249L120.777 230.959L121.678 227.22L128.883 228.252Z" fill="#455A64"/>
<path d="M125.078 236.596C125.027 236.596 125.144 234.734 125.331 232.431C125.518 230.129 125.715 228.257 125.761 228.257C125.811 228.257 125.695 230.119 125.508 232.426C125.316 234.724 125.123 236.596 125.078 236.596Z" fill="#263238"/>
<path d="M129.035 236.039L121.01 236.135V237.248L129.04 237.238L129.035 236.039Z" fill="#263238"/>
<path d="M121.03 232.532C121.02 232.522 121.085 232.406 121.232 232.209C121.379 232.011 121.612 231.743 121.941 231.45C122.27 231.156 122.695 230.837 123.226 230.589C123.752 230.336 124.395 230.154 125.078 230.159C126.454 230.159 127.608 230.832 128.175 231.505C128.468 231.834 128.65 232.148 128.756 232.371C128.858 232.593 128.898 232.725 128.883 232.73C128.837 232.755 128.65 232.234 128.053 231.622C127.476 231.009 126.378 230.402 125.073 230.402C123.772 230.397 122.7 231.05 122.052 231.581C121.384 232.128 121.06 232.563 121.03 232.532Z" fill="#263238"/>
<path d="M125.043 58.0586L124.957 85.5294L136.741 86.091L137.08 79.4118C137.08 79.4118 141.265 80.2417 142.348 76.3556C143.036 73.8711 142.864 54.6836 142.864 54.6836L125.043 58.0586Z" fill="#B78876"/>
<path d="M144.417 56.6115C142.56 57.1428 142.155 60.1788 142.155 60.1788L139.246 66.6101C137.763 65.4513 135.77 65.5171 135.395 68.123C135.122 70.0053 137.465 70.3848 137.465 70.3848C136.104 72.7023 135.178 74.5796 133.194 76.7857C131.044 79.174 129.844 79.4169 127.512 79.4523H124.941C124.941 79.4523 123.681 75.3689 121.354 65.1629C118.768 53.8386 132.162 55.2959 134.646 52.4066C138.689 47.6958 150.266 54.9366 144.417 56.6115Z" fill="#263238"/>
<path d="M147.686 54.1472C147.494 52.9429 146.34 51.9309 145.121 52.0119C145.556 51.3996 145.348 50.4787 144.787 49.9777C144.225 49.4768 143.41 49.3452 142.667 49.4616C141.923 49.5729 141.229 49.9018 140.551 50.2206C140.43 49.6438 139.701 48.6925 139.185 48.4142C138.148 47.8525 137.5 47.8525 136.913 47.8525C133.295 47.8525 131.393 50.3319 129.45 52.8518C129.116 53.287 128.787 53.7677 128.276 53.965C127.932 54.0966 127.552 54.0814 127.183 54.0865C124.43 54.1421 121.764 55.7967 120.499 58.2458C119.234 60.6948 118.287 66.357 121.561 69.8635L123.535 74.2708L142.424 59.3033C142.56 59.3742 143.744 59.951 144.655 59.4703C146.917 58.2812 145.971 56.2926 145.971 56.2926C146.153 56.2015 147.878 55.3565 147.686 54.1472Z" fill="#263238"/>
<path d="M130.204 68.8721C130.28 68.862 130.396 69.8184 130.138 70.9569C129.885 72.1004 129.369 72.91 129.303 72.8695C129.222 72.8291 129.602 71.9891 129.845 70.8911C130.098 69.7931 130.118 68.8721 130.204 68.8721Z" fill="#455A64"/>
<path d="M131.631 67.5205C131.712 67.5256 131.727 68.4313 131.519 69.5294C131.317 70.6274 130.973 71.4673 130.897 71.442C130.816 71.4167 131.029 70.5515 131.226 69.4737C131.428 68.401 131.545 67.5155 131.631 67.5205Z" fill="#455A64"/>
<path d="M135.709 62.9867C135.74 63.0271 135.406 63.27 134.981 63.7659C134.556 64.2567 134.065 65.0259 133.711 65.9569C133.356 66.8879 133.159 67.7835 133.007 68.4262C132.86 69.0738 132.759 69.4736 132.714 69.4635C132.673 69.4584 132.704 69.0435 132.8 68.3857C132.901 67.7279 133.063 66.812 133.432 65.8456C133.802 64.8791 134.343 64.0897 134.824 63.6192C135.31 63.1435 135.694 62.9614 135.709 62.9867Z" fill="#455A64"/>
<path d="M137.359 59.9055C137.394 59.8954 137.516 60.1737 137.586 60.6494C137.662 61.125 137.662 61.803 137.485 62.5266C137.303 63.2451 136.979 63.8473 136.691 64.2268C136.402 64.6113 136.165 64.7986 136.139 64.7733C136.063 64.7176 136.863 63.8321 137.197 62.4507C137.556 61.0744 137.268 59.9157 137.359 59.9055Z" fill="#455A64"/>
<path d="M123.297 66.7617C123.256 66.8326 122.897 66.7111 122.492 66.4834C122.087 66.2557 121.794 66.0179 121.834 65.942C121.875 65.8712 122.234 65.9926 122.639 66.2203C123.039 66.448 123.337 66.6909 123.297 66.7617Z" fill="#455A64"/>
<path d="M128.989 63.8316C129.065 63.8418 129.02 64.4237 128.65 65.0258C128.286 65.6279 127.795 65.9417 127.75 65.8809C127.694 65.8152 128.063 65.4255 128.397 64.874C128.736 64.3174 128.903 63.8114 128.989 63.8316Z" fill="#455A64"/>
<path d="M130.74 62.8904C130.816 62.9056 130.695 63.6039 130.214 64.3173C129.743 65.0358 129.146 65.4204 129.101 65.3546C129.045 65.2888 129.521 64.8233 129.966 64.1503C130.416 63.4824 130.659 62.8651 130.74 62.8904Z" fill="#455A64"/>
<path d="M139.443 51.3848C139.423 51.4101 139.221 51.2178 138.796 50.9749C138.371 50.7421 137.693 50.4841 136.822 50.4638C135.962 50.4385 134.899 50.6409 133.923 51.2431C132.946 51.8402 132.081 52.8167 131.454 53.9907C130.998 54.8458 130.679 55.7313 130.452 56.5662L130.406 56.7382L130.249 56.6573C129.374 56.1968 128.448 55.9944 127.618 55.9843C126.788 55.959 126.055 56.1159 125.478 56.3081C124.314 56.7079 123.762 57.2291 123.732 57.1835C123.722 57.1734 123.853 57.0418 124.127 56.8344C124.4 56.632 124.83 56.3638 125.417 56.1412C126.004 55.9185 126.758 55.7364 127.623 55.7414C128.483 55.7364 129.455 55.9286 130.386 56.4043L130.178 56.4954C130.401 55.6402 130.72 54.7294 131.195 53.849C131.843 52.6396 132.749 51.6226 133.781 51.0053C134.818 50.3879 135.932 50.1957 136.827 50.2513C137.733 50.3019 138.431 50.6005 138.851 50.8737C139.059 51.0204 139.216 51.1368 139.302 51.233C139.403 51.3291 139.448 51.3797 139.443 51.3848Z" fill="#455A64"/>
<path d="M145.642 52.8818C145.621 52.8768 145.971 52.7958 146.32 53.1905C146.477 53.3828 146.623 53.6813 146.593 54.0507C146.557 54.4201 146.299 54.7996 145.91 55.0273C145.52 55.2651 144.989 55.3461 144.478 55.2246C143.962 55.1133 143.466 54.8401 143 54.5061C142.53 54.1772 142.079 53.7977 141.558 53.5143C141.032 53.231 140.44 53.0235 139.818 52.9021C138.563 52.6693 137.318 52.811 136.265 53.145C135.208 53.484 134.327 53.995 133.639 54.4808C132.263 55.4726 131.585 56.2973 131.544 56.2569C131.529 56.2467 131.686 56.0292 132.01 55.675C132.334 55.3258 132.83 54.8299 133.518 54.3088C134.206 53.7926 135.092 53.2462 136.184 52.8818C137.272 52.5175 138.563 52.3607 139.878 52.6086C140.531 52.7351 141.153 52.9527 141.705 53.2563C142.262 53.5599 142.717 53.9546 143.167 54.2784C143.613 54.6073 144.073 54.8654 144.539 54.9767C145.004 55.0931 145.459 55.0374 145.809 54.8401C146.163 54.6528 146.391 54.329 146.431 54.0254C146.477 53.7167 146.365 53.4384 146.234 53.2563C145.945 52.8818 145.621 52.9122 145.642 52.8818Z" fill="#455A64"/>
<path d="M200.543 73.957C200.098 73.5623 194.096 76.0822 194.096 76.0822C194.096 76.0822 189.618 79.5938 187.777 81.6684L186.638 82.6147L169.606 95.8567L148.658 87.1434L144.114 98.832C144.114 98.832 167.633 108.193 171.215 106.589C175.111 104.848 189.608 89.6733 189.639 89.6227L191.733 87.6038C191.733 87.6038 192.842 87.5836 193.682 87.533C194.521 87.4824 196.981 85.848 196.981 85.848C196.981 85.848 197.335 85.2104 197.456 84.416C197.578 83.6216 197.001 83.3737 197.001 83.3737C197.001 83.3737 197.138 82.8575 197.041 82.1896C196.945 81.5217 196.055 80.7475 196.055 80.7475C196.055 80.7475 196.409 80.4591 196.616 79.69C196.824 78.9209 195.827 78.1922 195.827 78.1922C195.827 78.1922 199.308 75.8241 200.153 75.4092C200.998 74.9943 200.988 74.3517 200.543 73.957Z" fill="#B78876"/>
<path d="M151.739 193.642C151.81 192.872 151.845 192.28 151.845 191.911L154.208 154.148C154.208 154.148 152.22 143.123 151.278 140.193L142.823 136.919L131.56 141.306C131.484 140.395 131.438 139.839 131.438 139.839L114.846 145.572C114.846 145.572 114.416 156.891 114.846 160.337C114.983 161.445 115.418 164.304 115.944 167.674C115.944 167.674 116.481 174.995 116.587 175.405C116.987 176.898 117.083 180.556 117.083 184.22C117.083 188.875 117.336 194.416 117.624 197.052C117.913 199.688 118.054 228.647 118.054 228.647H130.3L131.873 182.515C132.136 177.571 132.531 170.011 132.789 164.541L135.663 181.573C135.663 182.196 137.414 191.936 137.414 191.936C137.414 191.936 136.771 196.506 136.665 201.176C136.463 209.763 135.456 228.642 135.456 228.642H147.443C147.438 228.647 151.041 201.383 151.739 193.642Z" fill="#263238"/>
<path d="M153.803 151.886C153.788 151.912 153.353 151.714 152.7 151.299C152.048 150.885 151.182 150.247 150.332 149.422C149.482 148.597 148.814 147.757 148.379 147.115C147.944 146.477 147.726 146.047 147.757 146.032C147.792 146.012 148.06 146.401 148.531 147.009C148.996 147.616 149.679 148.425 150.519 149.235C151.359 150.045 152.189 150.697 152.812 151.148C153.419 151.593 153.824 151.851 153.803 151.886Z" fill="#455A64"/>
<path d="M132.43 158.748C132.415 158.758 132.334 158.621 132.197 158.373C132.06 158.125 131.878 157.751 131.681 157.285C131.281 156.349 130.836 155.003 130.568 153.465C130.299 151.927 130.264 150.51 130.325 149.493C130.355 148.982 130.396 148.572 130.441 148.294C130.487 148.01 130.517 147.858 130.532 147.858C130.573 147.863 130.517 148.486 130.507 149.498C130.497 150.505 130.558 151.901 130.821 153.419C131.089 154.932 131.499 156.268 131.853 157.214C132.202 158.161 132.465 158.727 132.43 158.748Z" fill="#455A64"/>
<path d="M134.211 172.966C134.191 172.971 134.135 172.733 134.054 172.308C133.968 171.828 133.857 171.22 133.72 170.502C133.452 168.918 133.103 166.833 132.713 164.526C132.035 160.291 131.575 157.407 131.362 156.066C131.418 156.046 131.656 156.992 131.939 158.51C132.233 160.033 132.597 162.148 132.982 164.481C133.361 166.818 133.69 168.933 133.907 170.472C134.004 171.2 134.09 171.807 134.155 172.293C134.211 172.723 134.231 172.961 134.211 172.966Z" fill="#455A64"/>
<path d="M105.314 109.979C105.314 109.979 103.694 121.359 103.396 125.352C103.214 127.75 105.653 130.938 107.515 131.176C109.407 131.414 115.651 131.783 115.651 131.783L116.172 124.643L116.01 123.222L114.062 122.852L114.649 111.533L105.314 109.979Z" fill="#B78876"/>
<path d="M114.391 111.912C114.411 111.912 114.437 112.13 114.462 112.529C114.492 112.929 114.518 113.506 114.533 114.219C114.563 115.651 114.533 117.625 114.411 119.806C114.29 121.987 114.118 123.95 113.976 125.372C113.905 126.08 113.84 126.657 113.789 127.052C113.738 127.446 113.703 127.669 113.683 127.664C113.663 127.664 113.668 127.441 113.683 127.042C113.708 126.586 113.744 126.019 113.784 125.351C113.88 123.869 114.002 121.931 114.143 119.785C114.265 117.61 114.33 115.641 114.346 114.214C114.351 113.546 114.356 112.98 114.361 112.524C114.361 112.135 114.376 111.912 114.391 111.912Z" fill="#AA6550"/>
<g opacity="0.3">
<path d="M115.008 145.784C118.196 146.968 121.688 147.069 125.078 146.77C128.463 146.472 131.813 145.799 135.198 145.475C140.319 144.989 145.51 145.323 150.525 146.467C150.879 146.548 151.248 146.634 151.607 146.568C151.967 146.502 152.321 146.249 152.376 145.89C152.463 145.323 151.845 144.928 151.319 144.706C139.797 139.858 126.216 140.162 114.922 145.52" fill="black"/>
</g>
<path d="M163.817 92.3144L145.849 83.3683C141.128 82.8168 137.308 82.9939 137.308 82.9939H125.412C125.412 82.9939 110.996 87.2443 108.618 91.1658L102.439 109.685L114.654 111.532L116.177 124.84C116.177 124.84 114.664 140.248 114.664 142.484C114.664 144.721 114.857 145.576 114.857 145.576C114.857 145.576 139.291 141.862 145.308 143.82C151.324 145.778 152.953 145.576 152.953 145.576C152.953 145.576 152.452 139.18 152.002 135.471L150.606 116.906L149.573 102.728L160.882 106.189L163.817 92.3144Z" fill="#FDA95F"/>
<path d="M114.538 111.674C114.493 111.679 114.376 110.91 114.103 109.675C113.83 108.445 113.379 106.755 112.691 104.949C111.998 103.143 111.209 101.564 110.596 100.436C110.308 99.9143 110.06 99.469 109.858 99.1098C109.681 98.7961 109.589 98.619 109.61 98.6088C109.625 98.5987 109.746 98.7606 109.954 99.0592C110.161 99.3577 110.445 99.7979 110.774 100.355C111.431 101.463 112.261 103.041 112.959 104.863C113.658 106.685 114.083 108.395 114.305 109.64C114.417 110.262 114.488 110.768 114.523 111.122C114.543 111.476 114.558 111.674 114.538 111.674Z" fill="#263238"/>
<path d="M137.586 116.932C137.596 116.937 137.571 117.018 137.525 117.175C137.465 117.362 137.389 117.584 137.298 117.858C137.197 118.156 137.07 118.515 136.903 118.93C136.736 119.345 136.559 119.821 136.326 120.332C135.886 121.364 135.299 122.568 134.596 123.869C133.877 125.164 133.027 126.561 132.05 127.967C131.064 129.369 130.042 130.644 129.07 131.762C128.089 132.876 127.157 133.837 126.338 134.601C125.938 134.996 125.553 135.325 125.219 135.623C124.891 135.922 124.592 136.165 124.349 136.362C124.121 136.544 123.939 136.691 123.782 136.812C123.651 136.914 123.58 136.964 123.575 136.954C123.57 136.949 123.631 136.883 123.752 136.772C123.894 136.64 124.071 136.478 124.283 136.286C124.516 136.079 124.805 135.826 125.123 135.517C125.442 135.208 125.822 134.874 126.211 134.475C127.011 133.695 127.922 132.724 128.888 131.611C129.844 130.487 130.856 129.212 131.838 127.821C132.809 126.424 133.66 125.038 134.388 123.753C135.102 122.462 135.704 121.273 136.159 120.256C136.402 119.755 136.589 119.285 136.766 118.875C136.949 118.47 137.09 118.116 137.202 117.822C137.313 117.554 137.404 117.336 137.475 117.154C137.541 117.008 137.576 116.932 137.586 116.932Z" fill="#263238"/>
<path d="M145.89 84.5932C145.941 84.6185 145.217 85.337 144.944 86.85C144.802 87.5938 144.802 88.5097 144.959 89.5065C145.111 90.5033 145.414 91.5811 145.718 92.7145C146.34 94.9814 146.993 97.0003 147.494 98.4576C147.732 99.1458 147.929 99.7226 148.091 100.183C148.233 100.588 148.304 100.821 148.283 100.826C148.268 100.831 148.162 100.618 147.99 100.224C147.818 99.8289 147.585 99.247 147.312 98.5285C146.765 97.0864 146.077 95.0624 145.455 92.7904C145.151 91.657 144.853 90.5691 144.711 89.547C144.559 88.5299 144.584 87.5837 144.751 86.8146C144.913 86.0454 145.207 85.4686 145.445 85.1093C145.698 84.745 145.88 84.5831 145.89 84.5932Z" fill="#263238"/>
<path d="M111.978 104.089C111.998 104.109 111.674 104.433 111.021 104.742C110.374 105.05 109.362 105.303 108.259 105.137C107.156 104.97 106.26 104.423 105.734 103.937C105.197 103.446 104.99 103.047 105.015 103.032C105.051 103.006 105.314 103.36 105.855 103.796C106.392 104.231 107.252 104.717 108.299 104.878C109.342 105.035 110.308 104.828 110.951 104.57C111.593 104.317 111.952 104.054 111.978 104.089Z" fill="white"/>
<path d="M146.421 95.7355C146.431 95.7406 146.375 95.8721 146.269 96.1251C146.163 96.3781 145.986 96.7424 145.738 97.1978C145.232 98.1036 144.417 99.3939 143.066 100.694C141.725 101.98 139.797 103.26 137.363 103.796C136.154 104.064 134.833 104.16 133.498 103.963C132.152 103.781 130.831 103.26 129.581 102.572C127.097 101.185 124.997 99.4293 122.7 98.5893C120.423 97.714 118.13 97.8152 116.354 98.2402C114.558 98.6703 113.247 99.4546 112.413 100.047C111.583 100.664 111.193 101.089 111.173 101.064C111.173 101.064 111.532 100.608 112.352 99.9606C113.177 99.3332 114.492 98.5185 116.309 98.053C118.105 97.5976 120.443 97.4711 122.78 98.3566C125.133 99.2016 127.248 100.968 129.703 102.334C130.932 103.012 132.217 103.518 133.528 103.7C134.833 103.897 136.124 103.811 137.308 103.553C139.691 103.037 141.599 101.802 142.934 100.553C144.28 99.2876 145.115 98.0277 145.647 97.1422C145.905 96.6969 146.092 96.3376 146.218 96.0948C146.345 95.8569 146.416 95.7304 146.421 95.7355Z" fill="white"/>
<path d="M157.674 89.2433C157.69 89.2382 157.781 89.4406 157.907 89.8252C158.029 90.2097 158.16 90.7866 158.201 91.5152C158.236 92.2388 158.185 93.1192 157.917 94.0452C157.659 94.9712 157.199 95.9528 156.495 96.8181C155.787 97.6884 154.932 98.3158 154.239 98.9483C153.535 99.5707 152.999 100.234 152.706 100.876C152.407 101.514 152.336 102.096 152.372 102.485C152.402 102.88 152.488 103.087 152.463 103.098C152.453 103.103 152.427 103.052 152.387 102.951C152.346 102.85 152.301 102.698 152.27 102.495C152.205 102.091 152.245 101.473 152.539 100.8C152.817 100.117 153.368 99.4139 154.077 98.7712C154.77 98.1134 155.615 97.4911 156.293 96.6511C157.669 94.9661 158.054 92.9219 158.013 91.5203C157.978 90.0984 157.614 89.2584 157.674 89.2433Z" fill="white"/>
<path d="M128.443 131.904C128.448 131.919 128.26 131.99 127.916 132.086C127.572 132.182 127.066 132.314 126.429 132.405C125.791 132.481 124.997 132.542 124.157 132.273C123.742 132.142 123.327 131.914 122.968 131.606C122.608 131.292 122.31 130.907 121.996 130.543C121.682 130.174 121.349 129.855 120.979 129.607C120.605 129.359 120.21 129.182 119.82 129.05C119.036 128.792 118.272 128.772 117.65 128.843C117.027 128.914 116.542 129.096 116.223 129.248C115.899 129.394 115.732 129.501 115.722 129.48C115.717 129.47 115.863 129.334 116.177 129.157C116.491 128.974 116.982 128.762 117.624 128.661C118.267 128.564 119.061 128.564 119.891 128.823C120.306 128.949 120.726 129.136 121.121 129.394C121.516 129.657 121.88 130.002 122.194 130.376C122.512 130.75 122.806 131.12 123.135 131.418C123.469 131.712 123.843 131.924 124.233 132.051C125.012 132.314 125.781 132.284 126.409 132.228C127.663 132.076 128.433 131.859 128.443 131.904Z" fill="white"/>
<path d="M151.714 130.827C151.719 130.832 151.663 130.882 151.552 130.963C151.441 131.039 151.284 131.176 151.051 131.302C150.606 131.581 149.918 131.92 149.007 132.157C148.096 132.38 146.963 132.527 145.723 132.35C144.488 132.198 143.157 131.702 141.989 130.852C140.83 129.997 139.909 128.99 139.003 128.17C138.108 127.335 137.197 126.708 136.352 126.343C135.512 125.969 134.758 125.873 134.247 125.878C133.731 125.888 133.452 125.964 133.447 125.939C133.447 125.929 133.513 125.908 133.645 125.873C133.776 125.832 133.979 125.797 134.242 125.777C134.763 125.736 135.547 125.807 136.423 126.171C137.298 126.521 138.249 127.153 139.16 127.988C140.086 128.808 141.007 129.81 142.135 130.639C143.269 131.464 144.544 131.95 145.748 132.107C146.947 132.294 148.061 132.173 148.951 131.975C149.847 131.763 150.535 131.459 150.99 131.211C151.461 130.968 151.699 130.801 151.714 130.827Z" fill="white"/>
<path d="M194.724 58.7263C190.008 56.4796 185.925 52.7909 183.218 47.8776C179.883 41.8259 179.104 34.838 181.027 28.1993C182.949 21.5606 187.341 16.0654 193.393 12.7309C205.886 5.84422 221.653 10.4083 228.54 22.9015C231.875 28.9532 232.654 35.9462 230.731 42.5798C228.808 49.2135 224.416 54.7086 218.364 58.0482C210.789 62.2278 202 62.1924 194.724 58.7263ZM216.29 13.6214C209.499 10.3881 201.302 10.3527 194.228 14.2489C188.581 17.3608 184.483 22.4866 182.691 28.68C180.9 34.8734 181.624 41.3958 184.736 47.0427C187.847 52.6897 192.973 56.7883 199.167 58.5795C205.36 60.3708 211.882 59.6472 217.529 56.5353C223.176 53.4234 227.275 48.2976 229.066 42.1042C230.857 35.9107 230.134 29.3884 227.022 23.7414C224.497 19.1571 220.687 15.7163 216.29 13.6214Z" fill="#263238"/>
<path d="M238.382 87.0067C236.869 87.9378 234.89 87.4672 233.959 85.9593L217.038 58.5442C216.877 58.2862 216.957 57.9421 217.221 57.7852L220.828 55.5588C221.081 55.402 221.415 55.4728 221.577 55.7207L239.373 82.4932C240.375 84.0011 239.93 86.0504 238.382 87.0067Z" fill="#263238"/>
<path d="M195.347 57.4206C190.631 55.174 186.547 51.4852 183.84 46.572C180.506 40.5202 179.726 33.5324 181.649 26.8936C183.572 20.2549 187.964 14.7598 194.016 11.4252C206.509 4.53855 222.276 9.10267 229.163 21.5958C232.497 27.6476 233.276 34.6405 231.354 41.2742C229.431 47.9129 225.039 53.403 218.987 56.7426C211.412 60.9221 202.623 60.8867 195.347 57.4206ZM216.912 12.3158C210.122 9.08243 201.925 9.04701 194.851 12.9432C189.204 16.0551 185.105 21.1809 183.314 27.3743C181.523 33.5678 182.246 40.0901 185.358 45.7371C188.47 51.384 193.596 55.4826 199.789 57.2739C205.983 59.0651 212.505 58.3415 218.152 55.2296C223.799 52.1177 227.898 46.992 229.689 40.7985C231.48 34.6051 230.756 28.0827 227.645 22.4358C225.12 17.8514 221.309 14.4106 216.912 12.3158Z" fill="#455A64"/>
<path d="M239.075 86.5765L238.812 86.7385C237.633 87.4671 236.085 87.0977 235.356 85.9187L217.363 56.763L221.897 53.9648L239.89 83.1206C240.624 84.3046 240.254 85.8479 239.075 86.5765Z" fill="#455A64"/>
<path d="M187.19 27.941C187.174 27.9359 187.225 27.6526 187.331 27.1415C187.382 26.8834 187.453 26.5697 187.569 26.2206C187.68 25.8664 187.787 25.4565 187.974 25.0214C188.06 24.8038 188.151 24.5761 188.247 24.3383C188.343 24.1004 188.47 23.8677 188.586 23.6197C188.814 23.1137 189.123 22.6128 189.431 22.0764C190.094 21.029 190.914 19.931 191.911 18.8988C192.918 17.8766 193.99 17.0266 195.017 16.3333C195.544 16.0095 196.04 15.6857 196.541 15.4478C196.788 15.3264 197.016 15.1898 197.254 15.0886C197.487 14.9874 197.714 14.8912 197.932 14.8002C198.357 14.6028 198.767 14.4864 199.116 14.365C199.465 14.2385 199.774 14.1575 200.032 14.1019C200.543 13.9804 200.821 13.9197 200.826 13.9349C200.831 13.9501 200.553 14.0412 200.057 14.193C199.809 14.2638 199.501 14.3549 199.162 14.4966C198.818 14.6281 198.418 14.7597 197.998 14.9621C197.785 15.0582 197.563 15.1594 197.335 15.2606C197.107 15.3669 196.88 15.5035 196.637 15.63C196.151 15.8729 195.665 16.1967 195.144 16.5256C194.132 17.2188 193.079 18.0639 192.088 19.0708C191.106 20.0929 190.291 21.1656 189.629 22.1979C189.315 22.7241 189.006 23.22 188.773 23.7108C188.652 23.9537 188.525 24.1865 188.424 24.4192C188.328 24.652 188.232 24.8746 188.141 25.0922C187.949 25.5122 187.832 25.917 187.706 26.2661C187.574 26.6102 187.493 26.9189 187.427 27.1719C187.291 27.6677 187.205 27.946 187.19 27.941Z" fill="#E0E0E0"/>
</g>
</svg>
