<svg width="66" height="73" viewBox="0 0 66 73" fill="none" xmlns="http://www.w3.org/2000/svg">
<path fill-rule="evenodd" clip-rule="evenodd" d="M17.4638 0.390891C18.9046 -0.0893909 20.462 0.689299 20.9423 2.13014C21.4226 3.57099 20.6439 5.12837 19.2031 5.60865L18.6386 5.79681C12.8904 7.71286 8.37985 12.2234 6.4638 17.9716L6.27564 18.5361C5.79536 19.9769 4.23798 20.7556 2.79714 20.2753C1.35629 19.795 0.577602 18.2377 1.05788 16.7968L1.24604 16.2323C3.70954 8.84185 9.50885 3.04254 16.8993 0.579051L17.4638 0.390891ZM48.5361 0.390891C47.0952 -0.0893909 45.5379 0.689299 45.0576 2.13014C44.5773 3.57099 45.356 5.12837 46.7968 5.60865L47.3613 5.79681C53.1095 7.71286 57.62 12.2234 59.5361 17.9716L59.7243 18.5361C60.2045 19.9769 61.7619 20.7556 63.2028 20.2753C64.6436 19.795 65.4223 18.2377 64.942 16.7968L64.7538 16.2323C62.2904 8.84185 56.491 3.04254 49.1006 0.579051L48.5361 0.390891ZM33 6.66659C21.1601 6.66659 11.1973 15.7997 9.82528 27.9114L8.56073 39.0744C8.24652 41.8482 7.12231 44.4585 5.33675 46.5601C1.5476 51.02 4.62293 57.9999 10.3771 57.9999H55.6228C61.377 57.9999 64.4523 51.02 60.6631 46.5601C58.8776 44.4585 57.7534 41.8482 57.4392 39.0744L56.1746 27.9114C54.8026 15.7997 44.8398 6.66659 33 6.66659ZM32.9999 72.6666C37.9739 72.6666 42.2207 69.7303 43.8977 65.5954C43.9676 65.423 43.9999 65.238 43.9999 65.052C43.9999 64.1948 43.3051 63.4999 42.4479 63.4999H23.552C22.6948 63.4999 21.9999 64.1948 21.9999 65.052C21.9999 65.238 22.0323 65.423 22.1022 65.5954C23.7792 69.7303 28.026 72.6666 32.9999 72.6666Z" fill="#FCFCFC"/>
</svg>
