<svg width="22" height="22" viewBox="0 0 22 22" fill="none" xmlns="http://www.w3.org/2000/svg">
<path fill-rule="evenodd" clip-rule="evenodd" d="M17.5854 9.95312C17.5854 14.3671 14.073 17.9453 9.74035 17.9453C5.40767 17.9453 1.89534 14.3671 1.89534 9.95312C1.89534 5.53916 5.40767 1.96094 9.74035 1.96094C14.073 1.96094 17.5854 5.53916 17.5854 9.95312ZM9.74035 19.4922C14.9116 19.4922 19.1037 15.2214 19.1037 9.95312C19.1037 4.68485 14.9116 0.414062 9.74035 0.414062C4.56909 0.414062 0.376953 4.68485 0.376953 9.95312C0.376953 15.2214 4.56909 19.4922 9.74035 19.4922ZM20.7959 21.2161C20.0154 22.0113 18.7498 22.0113 17.9693 21.2161L16.0734 19.2847C17.1769 18.5059 18.1356 17.5292 18.9001 16.405L20.7959 18.3364C21.5765 19.1316 21.5765 20.4209 20.7959 21.2161Z" fill="#FF810E"/>
</svg>
