<svg width="17" height="17" viewBox="0 0 17 17" fill="none" xmlns="http://www.w3.org/2000/svg">
<path fill-rule="evenodd" clip-rule="evenodd" d="M11.4917 1.21745C12.2816 0.427517 13.5623 0.427517 14.3523 1.21745L15.7826 2.64775C16.5725 3.43768 16.5725 4.71841 15.7826 5.50834L14.5144 6.77649C14.4148 6.72719 14.3101 6.67389 14.2015 6.61671C13.4705 6.23187 12.6031 5.69175 11.9557 5.04436C11.3083 4.39697 10.7682 3.52952 10.3833 2.79853C10.3261 2.68991 10.2728 2.58515 10.2235 2.48559L11.4917 1.21745ZM11.0276 5.97243C11.7937 6.73851 12.7679 7.34145 13.5395 7.75136L8.55253 12.7384C8.24306 13.0478 7.84156 13.2486 7.4083 13.3105L4.40467 13.7396C3.7372 13.8349 3.16508 13.2628 3.26044 12.5953L3.68952 9.5917C3.75142 9.15844 3.95217 8.75694 4.26164 8.44746L9.24865 3.46046C9.65856 4.23205 10.2615 5.20634 11.0276 5.97243ZM1.28125 15.0625C0.918813 15.0625 0.625 15.3563 0.625 15.7188C0.625 16.0812 0.918813 16.375 1.28125 16.375H15.7188C16.0812 16.375 16.375 16.0812 16.375 15.7188C16.375 15.3563 16.0812 15.0625 15.7188 15.0625H1.28125Z" fill="#6C6C6C"/>
</svg>
