<svg width="17" height="18" viewBox="0 0 17 18" fill="none" xmlns="http://www.w3.org/2000/svg">
<path fill-rule="evenodd" clip-rule="evenodd" d="M6.07096 2.35714C6.07096 1.05533 7.12629 0 8.4281 0C9.72992 0 10.7852 1.05533 10.7852 2.35714V2.49913C12.8295 2.74791 14.7393 3.31541 16.424 4.1364C16.7432 4.29193 16.8758 4.67674 16.7203 4.9959C16.5647 5.31506 16.1799 5.44771 15.8608 5.29218C13.7251 4.25141 11.1746 3.64286 8.42809 3.64286C5.68158 3.64286 3.13111 4.25141 0.995422 5.29218C0.676262 5.44771 0.291447 5.31506 0.135914 4.9959C-0.0196194 4.67674 0.113026 4.29193 0.432185 4.1364C2.11689 3.3154 4.02669 2.74791 6.07096 2.49913V2.35714ZM13.7984 13.9569C13.6703 15.7511 12.1773 17.1412 10.3786 17.1412H6.47768C4.67892 17.1412 3.18598 15.7511 3.05782 13.9569L2.46791 5.6982C4.28276 5.06536 6.30132 4.71261 8.42813 4.71261C10.5549 4.71261 12.5735 5.06536 14.3883 5.6982L13.7984 13.9569ZM7.3567 7.71261C7.3567 7.35757 7.06888 7.06975 6.71384 7.06975C6.3588 7.06975 6.07098 7.35757 6.07098 7.71261V12.8555C6.07098 13.2105 6.3588 13.4983 6.71384 13.4983C7.06888 13.4983 7.3567 13.2105 7.3567 12.8555V7.71261ZM10.1424 7.06975C10.4975 7.06975 10.7853 7.35757 10.7853 7.71261V12.8555C10.7853 13.2105 10.4975 13.4983 10.1424 13.4983C9.78737 13.4983 9.49955 13.2105 9.49955 12.8555V7.71261C9.49955 7.35757 9.78737 7.06975 10.1424 7.06975Z" fill="#6C6C6C"/>
</svg>
