<svg width="39" height="39" viewBox="0 0 39 39" fill="none" xmlns="http://www.w3.org/2000/svg">
<path fill-rule="evenodd" clip-rule="evenodd" d="M4.45126 9.7113C4.45126 6.80613 6.80637 4.45102 9.71154 4.45102H19.4228C20.0933 4.45102 20.6367 3.90753 20.6367 3.2371C20.6367 2.56668 20.0933 2.02319 19.4228 2.02319H9.71154C5.46552 2.02319 2.02344 5.46528 2.02344 9.7113V29.1339C2.02344 33.3799 5.46552 36.822 9.71154 36.822H29.1341C33.3802 36.822 36.8222 33.3799 36.8222 29.1339V19.4226C36.8222 18.7522 36.2787 18.2087 35.6083 18.2087C34.9379 18.2087 34.3944 18.7522 34.3944 19.4226V29.1339C34.3944 32.0391 32.0393 34.3942 29.1341 34.3942H9.71154C6.80637 34.3942 4.45126 32.0391 4.45126 29.1339V9.7113ZM26.5749 4.3332C28.0361 2.87201 30.4052 2.87201 31.8664 4.3332L34.5121 6.97892C35.9733 8.44011 35.9733 10.8092 34.5121 12.2704L32.1663 14.6162C31.9822 14.525 31.7884 14.4264 31.5875 14.3206C30.2354 13.6087 28.6308 12.6096 27.4333 11.4121C26.2357 10.2146 25.2366 8.61 24.5248 7.25783C24.419 7.05691 24.3204 6.86314 24.2292 6.67897L26.5749 4.3332ZM25.7165 13.1288C27.1336 14.5459 28.9358 15.6612 30.363 16.4194L21.1382 25.6442C20.5658 26.2167 19.8231 26.588 19.0216 26.7025L13.4656 27.4962C12.231 27.6726 11.1727 26.6143 11.3491 25.3797L12.1428 19.8236C12.2573 19.0222 12.6286 18.2795 13.2011 17.7071L22.4259 8.48226C23.1841 9.90952 24.2994 11.7117 25.7165 13.1288Z" fill="#FCFCFC"/>
</svg>
