<svg width="41" height="38" viewBox="0 0 41 38" fill="none" xmlns="http://www.w3.org/2000/svg">
<path fill-rule="evenodd" clip-rule="evenodd" d="M16.6749 3.98951C18.8366 2.80786 21.4998 2.80786 23.6614 3.98951L31.8012 8.43906C33.9628 9.62071 35.2944 11.8045 35.2944 14.1678V23.0669C35.2944 25.4302 33.9628 27.614 31.8012 28.7956L23.6614 33.2452C21.4998 34.4268 18.8366 34.4268 16.6749 33.2452L8.53524 28.7956C6.37361 27.614 5.04199 25.4302 5.04199 23.0669V14.1678C5.04199 11.8045 6.37361 9.62071 8.53524 8.43906L16.6749 3.98951ZM20.1682 12.0239C19.0079 12.0239 18.0673 12.8921 18.0673 13.9631C18.0673 14.6057 17.503 15.1267 16.8068 15.1267C16.1107 15.1267 15.5463 14.6057 15.5463 13.9631C15.5463 11.6069 17.6156 9.69675 20.1682 9.69675C22.7208 9.69675 24.7901 11.6069 24.7901 13.9631C24.7901 14.8107 24.521 15.6038 24.057 16.2695C23.7664 16.6864 23.4266 17.0845 23.1133 17.4439L22.9443 17.6372C22.6843 17.9342 22.4457 18.2069 22.2251 18.4867C21.6813 19.1766 21.4287 19.6951 21.4287 20.1687V20.9444C21.4287 21.5871 20.8644 22.108 20.1682 22.108C19.472 22.108 18.9077 21.5871 18.9077 20.9444V20.1687C18.9077 18.9287 19.5672 17.9033 20.1866 17.1175C20.4483 16.7855 20.7351 16.458 20.9959 16.1602L21.1491 15.985C21.4604 15.628 21.7253 15.3138 21.937 15.0102C22.1471 14.7088 22.2691 14.3509 22.2691 13.9631C22.2691 12.8921 21.3285 12.0239 20.1682 12.0239ZM21.4287 24.823C21.4287 24.1803 20.8644 23.6594 20.1682 23.6594C19.472 23.6594 18.9077 24.1803 18.9077 24.823V26.3744C18.9077 27.017 19.472 27.5379 20.1682 27.5379C20.8644 27.5379 21.4287 27.017 21.4287 26.3744V24.823Z" fill="#FCFCFC"/>
</svg>
