<svg width="72" height="72" viewBox="0 0 72 72" fill="none" xmlns="http://www.w3.org/2000/svg">
<g opacity="0.15">
<path d="M36.2015 71.9995C36.1344 71.9998 36.0672 72 36 72C35.9328 72 35.8656 71.9998 35.7985 71.9995C35.8663 71.933 35.9335 71.8658 36 71.798C36.0665 71.8658 36.1337 71.933 36.2015 71.9995Z" fill="#0C0C0C"/>
<path fill-rule="evenodd" clip-rule="evenodd" d="M59.9742 62.8563C59.9913 62.5731 60 62.2875 60 62C60 54.268 53.732 48 46 48H26C18.268 48 12 54.268 12 62C12 62.2875 12.0087 62.5731 12.0258 62.8563C4.64582 56.2638 0 46.6744 0 36C0 16.1177 16.1177 0 36 0C55.8823 0 72 16.1177 72 36C72 46.6744 67.3542 56.2638 59.9742 62.8563ZM36 36C42.6274 36 48 30.6274 48 24C48 17.3726 42.6274 12 36 12C29.3726 12 24 17.3726 24 24C24 30.6274 29.3726 36 36 36Z" fill="#0C0C0C"/>
</g>
</svg>
