<svg width="36" height="36" viewBox="0 0 36 36" fill="none" xmlns="http://www.w3.org/2000/svg">
<path fill-rule="evenodd" clip-rule="evenodd" d="M13.6226 6.99523C13.6226 4.75852 15.4358 2.94531 17.6725 2.94531C19.9093 2.94531 21.7225 4.75852 21.7225 6.99523V7.23919C25.2348 7.66663 28.5161 8.64167 31.4107 10.0522C31.959 10.3195 32.1869 10.9806 31.9197 11.529C31.6525 12.0774 30.9913 12.3053 30.4429 12.038C26.7735 10.2499 22.3914 9.20428 17.6725 9.20428C12.9536 9.20428 8.57154 10.2499 4.90211 12.038C4.35375 12.3053 3.69258 12.0774 3.42535 11.529C3.15812 10.9806 3.38603 10.3195 3.93439 10.0522C6.82895 8.64166 10.1103 7.66663 13.6226 7.23918V6.99523ZM26.8997 26.9252C26.6795 30.0079 24.1144 32.3963 21.0239 32.3963H14.3216C11.231 32.3963 8.66595 30.0079 8.44575 26.9252L7.43221 12.7356C10.5504 11.6483 14.0186 11.0422 17.6727 11.0422C21.3269 11.0422 24.7951 11.6483 27.9133 12.7356L26.8997 26.9252ZM15.8319 16.1966C15.8319 15.5866 15.3373 15.0921 14.7273 15.0921C14.1173 15.0921 13.6228 15.5866 13.6228 16.1966V25.0328C13.6228 25.6428 14.1173 26.1373 14.7273 26.1373C15.3373 26.1373 15.8319 25.6428 15.8319 25.0328V16.1966ZM20.6181 15.0921C21.2281 15.0921 21.7226 15.5866 21.7226 16.1966V25.0328C21.7226 25.6428 21.2281 26.1373 20.6181 26.1373C20.0081 26.1373 19.5136 25.6428 19.5136 25.0328V16.1966C19.5136 15.5866 20.0081 15.0921 20.6181 15.0921Z" fill="#FCFCFC"/>
</svg>
