<svg width="43" height="31" viewBox="0 0 43 31" fill="none" xmlns="http://www.w3.org/2000/svg">
<path fill-rule="evenodd" clip-rule="evenodd" d="M21.3685 13.2547C24.8712 13.2547 27.7106 10.4153 27.7106 6.91263C27.7106 3.41 24.8712 0.570557 21.3685 0.570557C17.8659 0.570557 15.0265 3.41 15.0265 6.91263C15.0265 10.4153 17.8659 13.2547 21.3685 13.2547ZM21.368 30.167C28.3732 30.167 34.0521 27.3276 34.0521 23.8249C34.0521 20.3223 28.3732 17.4829 21.368 17.4829C14.3627 17.4829 8.68384 20.3223 8.68384 23.8249C8.68384 27.3276 14.3627 30.167 21.368 30.167ZM9.49119 17.5232C4.27026 17.8452 0.228271 20.0707 0.228271 22.7683C0.228271 24.9921 2.97542 26.8952 6.86552 27.6754C5.99624 26.4983 5.51333 25.1956 5.51333 23.8253C5.51333 21.408 7.0159 19.2014 9.49119 17.5232ZM37.2233 23.8253C37.2233 25.1956 36.7404 26.4983 35.8712 27.6754C39.7613 26.8952 42.5084 24.9921 42.5084 22.7683C42.5084 20.0707 38.4664 17.8452 33.2455 17.5232C35.7208 19.2014 37.2233 21.408 37.2233 23.8253ZM29.2285 12.2727C30.2713 10.7464 30.8811 8.90083 30.8811 6.91283C30.8811 6.25313 30.8139 5.60912 30.6861 4.98725C31.0817 4.86477 31.5022 4.79881 31.9381 4.79881C34.2732 4.79881 36.1661 6.69177 36.1661 9.02685C36.1661 11.3619 34.2732 13.2549 31.9381 13.2549C30.9071 13.2549 29.9623 12.8859 29.2285 12.2727ZM10.798 4.79881C11.2339 4.79881 11.6544 4.86477 12.05 4.98725C11.9222 5.60912 11.855 6.25313 11.855 6.91283C11.855 8.90083 12.4648 10.7464 13.5076 12.2727C12.7738 12.8859 11.829 13.2549 10.798 13.2549C8.46291 13.2549 6.56995 11.3619 6.56995 9.02685C6.56995 6.69177 8.46291 4.79881 10.798 4.79881Z" fill="#FCFCFC"/>
</svg>
