<?xml version="1.0" encoding="UTF-8"?>
<!DOCTYPE svg PUBLIC "-//W3C//DTD SVG 1.1//EN" "http://www.w3.org/Graphics/SVG/1.1/DTD/svg11.dtd">
<!-- Creator: CorelDRAW 2021.5 -->
<svg xmlns="http://www.w3.org/2000/svg" xml:space="preserve" width="210mm" height="297mm" version="1.1" style="shape-rendering:geometricPrecision; text-rendering:geometricPrecision; image-rendering:optimizeQuality; fill-rule:evenodd; clip-rule:evenodd"
viewBox="0 0 21000 29700"
 xmlns:xlink="http://www.w3.org/1999/xlink"
 xmlns:xodm="http://www.corel.com/coreldraw/odm/2003">
 <defs>
  <style type="text/css">
   <![CDATA[
    .fil2 {fill:#E11D3B}
    .fil0 {fill:#242B4A}
    .fil1 {fill:#242B4A;fill-rule:nonzero}
   ]]>
  </style>
 </defs>
 <g id="Слой_x0020_1">
  <metadata id="CorelCorpID_0Corel-Layer"/>
  <g id="_3236429145104">
   <polygon class="fil0" points="10565.6,13212.23 10565.6,16877.65 11286.44,16877.65 11286.44,14379.07 11310.88,14379.07 12398.29,15942.98 12679.31,15942.98 13760.57,14385.17 13785.02,14385.17 13785.02,16877.65 14536.45,16877.65 14536.45,13212.23 13772.82,13212.23 12569.32,14953.32 11329.19,13212.23 "/>
   <polygon class="fil0" points="8549.58,16877.65 8549.58,15942.98 10107.39,13212.23 9307.11,13212.23 8219.71,14953.32 8158.61,14953.32 7089.56,13212.23 6246.49,13212.23 7828.74,15936.88 7828.74,16877.65 "/>
   <polygon class="fil0" points="5806.67,13212.23 5091.93,13212.23 5091.93,16877.65 5806.67,16877.65 "/>
   <path class="fil0" d="M2458.92 15228.2l788.07 134.43c195.49,42.75 378.77,85.5 500.91,177.14 67.24,67.2 122.19,140.54 122.19,256.58 0,122.19 -42.75,213.83 -122.19,274.92 -201.58,140.49 -433.71,201.59 -891.87,201.59 -439.86,0 -806.43,-79.4 -1276.79,-274.93l-226.03 604.8c525.36,250.48 861.33,342.12 1515.02,342.12 439.86,0 971.32,-91.64 1307.33,-311.57 250.48,-164.94 433.72,-439.82 433.72,-855.23 0,-293.27 -103.84,-513.16 -256.58,-678.14 -238.23,-244.33 -592.55,-366.52 -1007.96,-439.81l-726.99 -128.29c-116.08,-18.35 -256.58,-48.89 -360.42,-116.09 -73.29,-48.85 -109.98,-122.19 -109.98,-213.83 0,-103.84 36.69,-183.24 116.08,-244.33 152.74,-122.19 427.62,-152.74 739.19,-152.74 384.86,0 726.98,85.54 1166.84,305.43l293.23 -574.21c-568.15,-311.57 -971.36,-391.01 -1508.92,-391.01 -470.41,0 -873.62,85.54 -1160.74,299.37 -238.24,177.14 -384.87,409.27 -384.87,775.84 0,262.68 103.89,500.95 256.58,653.64 201.62,201.63 500.95,299.37 794.18,354.32z"/>
   <path class="fil1" d="M19069.94 16264.41c0,119.15 -40.91,219.65 -122.7,301.43 -81.82,81.82 -182.32,122.73 -301.26,122.73 -7.72,0 -12.89,-3.58 -15.68,-10.51 -18.26,-48.25 -27.4,-77.86 -27.4,-88.58 0,-8.54 7.34,-12.92 22.06,-12.92 57.97,0 111.18,-12.3 159.44,-37.12 26.81,-13.68 52.83,-34.74 78.44,-63.55 28.98,-32.57 43.49,-61.94 43.49,-88.37 0,-3.34 -1.41,-5.14 -4.17,-5.14 -2.2,0 -6.75,1.97 -13.3,5.76 -41.12,24.81 -85.61,37.12 -133.66,37.12 -67.1,0 -121.52,-20.85 -163.43,-62.73 -41.87,-41.91 -62.73,-96.33 -62.73,-163.43 0,-81.41 24.41,-144.96 73.28,-190.63 47.25,-44.7 111.8,-66.93 193.59,-66.93 90.74,0 160.47,31.98 208.89,95.92 43.5,57.79 65.14,133.45 65.14,226.95zm-134.62 -49.04c0,-45.08 -11.51,-83.2 -34.36,-114.19 -25.02,-34.94 -59.39,-52.42 -102.67,-52.42 -94.51,0 -141.76,50.04 -141.76,150.34 0,39.12 12.3,71.69 36.91,97.67 24.65,26.02 56.42,39.15 95.54,39.15 39.5,0 72.86,-9.96 100.47,-29.81 30.57,-22.02 45.87,-52.42 45.87,-90.74zm697.19 247.42c0,64.73 -24.81,116.56 -74.48,155.47 -46.04,36.54 -104.25,54.84 -174.32,54.84 -77.65,0 -139.21,-16.89 -185.08,-50.67 -53.01,-38.7 -79.61,-97.09 -79.61,-174.53 0,-70.69 30.15,-122.9 90.54,-156.68 -19.68,-15.47 -35.74,-37.74 -48.05,-66.72 -12.51,-28.78 -18.68,-57.97 -18.68,-87.58 0,-65.52 24.82,-116.73 74.45,-153.68 44.49,-32.57 100.7,-48.83 168.6,-48.83 61.18,0 114.56,17.68 160.26,52.8 50.43,38.15 75.65,86.78 75.65,145.96 0,30.39 -7.54,60.76 -22.64,91.33 -15.1,31.78 -34.95,56 -59.59,72.69 61.97,35.36 92.95,90.54 92.95,165.6zm-129.86 -322.87c0,-26.61 -10.93,-49.83 -32.78,-69.1 -21.85,-19.47 -48.63,-29.19 -80.41,-29.19 -36.94,0 -65.93,7.34 -87.19,22.02 -21.23,14.92 -31.95,33.98 -31.95,57.8 0,30.57 22.23,57.59 66.9,80.82 20.05,10.92 57.79,25.23 112.8,43.08 35.15,-29.57 52.63,-64.52 52.63,-105.43zm-9.55 332c0,-35.32 -23.23,-64.52 -69.69,-87.57 -37.53,-14.68 -75.27,-29.37 -113.18,-43.67 -42.5,29.19 -63.76,67.52 -63.76,114.98 0,32.57 10.92,59.17 32.57,79.23 23.64,22.23 56.8,33.33 99.71,33.33 76.23,0 114.35,-32.16 114.35,-96.3z"/>
   <path class="fil0" d="M16827.45 13212.12c80.24,0 159.3,5.22 236.8,15.19l-236.8 650.66c-644.47,0 -1166.89,522.41 -1166.89,1166.89 0,644.47 522.42,1166.88 1166.89,1166.88 644.47,0 1166.88,-522.41 1166.88,-1166.88l0 -0.05 650.66 -236.8c9.97,77.55 15.19,156.56 15.19,236.85 0,1012.21 -820.52,1832.73 -1832.73,1832.73 -1012.22,0 -1832.73,-820.52 -1832.73,-1832.73 0,-1012.22 820.51,-1832.74 1832.73,-1832.74z"/>
   <path class="fil2" d="M17535.34 12756.22c822.79,106.16 1474.59,757.91 1580.75,1580.7l-650.66 236.8c0,-644.43 -522.41,-1166.84 -1166.89,-1166.84l236.8 -650.66z"/>
  </g>
 </g>
</svg>
