<svg width="65" height="67" viewBox="0 0 65 67" fill="none" xmlns="http://www.w3.org/2000/svg">
<path fill-rule="evenodd" clip-rule="evenodd" d="M40.1667 15.375C40.1667 23.3831 33.7494 29.875 25.8333 29.875C17.9173 29.875 11.5 23.3831 11.5 15.375C11.5 7.36687 17.9173 0.875 25.8333 0.875C33.7494 0.875 40.1667 7.36687 40.1667 15.375ZM50.9167 51.6254C50.9167 59.6335 39.6865 66.1254 25.8333 66.1254C11.9802 66.1254 0.75 59.6335 0.75 51.6254C0.75 43.6173 11.9802 37.1254 25.8333 37.1254C39.6865 37.1254 50.9167 43.6173 50.9167 51.6254ZM54.4992 36.2183C53.0149 36.2183 51.8117 35.0011 51.8117 33.4996L51.8117 28.9683H47.3325C45.8483 28.9683 44.645 27.7511 44.645 26.2496C44.645 24.7481 45.8483 23.5308 47.3325 23.5308H51.8117V18.9996C51.8117 17.4981 53.0149 16.2808 54.4992 16.2808C55.9835 16.2808 57.1867 17.4981 57.1867 18.9996V23.5308H61.6659C63.1501 23.5308 64.3534 24.7481 64.3534 26.2496C64.3534 27.7511 63.1501 28.9683 61.6659 28.9683H57.1867V33.4996C57.1867 35.0011 55.9835 36.2183 54.4992 36.2183Z" fill="#E0E0E0"/>
</svg>
