<svg width="42" height="43" viewBox="0 0 42 43" fill="none" xmlns="http://www.w3.org/2000/svg">
<path fill-rule="evenodd" clip-rule="evenodd" d="M26.0833 10.0417C26.0833 15.1043 21.9793 19.2083 16.9167 19.2083C11.8541 19.2083 7.75 15.1043 7.75 10.0417C7.75 4.97906 11.8541 0.875 16.9167 0.875C21.9793 0.875 26.0833 4.97906 26.0833 10.0417ZM32.9583 32.9586C32.9583 38.0212 25.7762 42.1253 16.9167 42.1253C8.0571 42.1253 0.875 38.0212 0.875 32.9586C0.875 27.896 8.0571 23.7919 16.9167 23.7919C25.7762 23.7919 32.9583 27.896 32.9583 32.9586ZM35.2495 23.2185C34.3002 23.2185 33.5307 22.449 33.5307 21.4997L33.5307 18.6352H30.6662C29.7169 18.6352 28.9474 17.8657 28.9474 16.9164C28.9474 15.9672 29.7169 15.1977 30.6662 15.1977H33.5307V12.3331C33.5307 11.3838 34.3002 10.6143 35.2495 10.6143C36.1987 10.6143 36.9682 11.3838 36.9682 12.3331V15.1977H39.8328C40.7821 15.1977 41.5516 15.9672 41.5516 16.9164C41.5516 17.8657 40.7821 18.6352 39.8328 18.6352H36.9682V21.4997C36.9682 22.449 36.1987 23.2185 35.2495 23.2185Z" fill="#FF810E"/>
</svg>
