<svg width="25" height="24" viewBox="0 0 25 24" fill="none" xmlns="http://www.w3.org/2000/svg">
<path d="M21.3457 12C21.3457 16.9706 17.3163 21 12.3457 21C7.37514 21 3.3457 16.9706 3.3457 12C3.3457 7.02944 7.37514 3 12.3457 3C17.3163 3 21.3457 7.02944 21.3457 12Z" fill="#BDBDBD"/>
<path d="M12.3457 16H13.3457C14.0124 16 15.3457 15.6 15.3457 14C15.3457 12.4 14.0124 12 13.3457 12H11.3457C10.679 12 9.3457 11.6 9.3457 10C9.3457 8.4 10.679 8 11.3457 8H12.3457M12.3457 16H9.3457M12.3457 16V18M15.3457 8H12.3457M12.3457 8V6" stroke="#FCFCFC" stroke-width="1.5" stroke-linecap="round" stroke-linejoin="round"/>
</svg>
