<svg width="19" height="20" viewBox="0 0 19 20" fill="none" xmlns="http://www.w3.org/2000/svg">
<path fill-rule="evenodd" clip-rule="evenodd" d="M9.51237 19.1668C14.575 19.1668 18.679 15.0628 18.679 10.0002C18.679 4.93755 14.575 0.833496 9.51237 0.833496C4.44976 0.833496 0.345703 4.93755 0.345703 10.0002C0.345703 15.0628 4.44976 19.1668 9.51237 19.1668ZM10.1999 5.41683C10.1999 5.03713 9.89207 4.72933 9.51237 4.72933C9.13268 4.72933 8.82487 5.03713 8.82487 5.41683V10.0002C8.82487 10.2961 9.01423 10.5588 9.29496 10.6524L13.4761 12.9348C13.8363 13.0549 14.2256 12.8602 14.3457 12.5C14.4658 12.1398 14.2711 11.7504 13.9109 11.6304L10.1999 9.50464V5.41683Z" fill="#BDBDBD"/>
</svg>
