<svg width="30" height="30" viewBox="0 0 30 30" fill="none" xmlns="http://www.w3.org/2000/svg">
<path fill-rule="evenodd" clip-rule="evenodd" d="M7.5 22.1875C7.56255 22.1875 7.62367 22.1814 7.6828 22.1697C8.56359 22.1232 9.42973 21.7402 10.0692 21.0208L11.9507 18.9041C12.2947 18.5171 12.2598 17.9245 11.8729 17.5806C11.4859 17.2366 10.8933 17.2714 10.5493 17.6584L8.66784 19.7751C8.59675 19.8551 8.5195 19.9259 8.4375 19.9876V6.25C8.4375 5.73223 8.01777 5.3125 7.5 5.3125C6.98223 5.3125 6.5625 5.73223 6.5625 6.25V19.9875C6.48051 19.9259 6.40326 19.855 6.33218 19.7751L4.45071 17.6584C4.10672 17.2714 3.51415 17.2366 3.12717 17.5806C2.74019 17.9245 2.70533 18.5171 3.04931 18.9041L4.93079 21.0208C5.57028 21.7402 6.43641 22.1232 7.31719 22.1697C7.37632 22.1814 7.43744 22.1875 7.5 22.1875ZM14.0625 6.25C14.0625 5.73223 14.4822 5.3125 15 5.3125H18.75C19.2678 5.3125 19.6875 5.73223 19.6875 6.25C19.6875 6.76777 19.2678 7.1875 18.75 7.1875H15C14.4822 7.1875 14.0625 6.76777 14.0625 6.25ZM15 14.6875C14.4822 14.6875 14.0625 14.2678 14.0625 13.75C14.0625 13.2322 14.4822 12.8125 15 12.8125H22.5C23.0178 12.8125 23.4375 13.2322 23.4375 13.75C23.4375 14.2678 23.0178 14.6875 22.5 14.6875H15ZM15 22.1875C14.4822 22.1875 14.0625 21.7678 14.0625 21.25C14.0625 20.7322 14.4822 20.3125 15 20.3125H26.25C26.7678 20.3125 27.1875 20.7322 27.1875 21.25C27.1875 21.7678 26.7678 22.1875 26.25 22.1875H15Z" fill="#6C6C6C"/>
</svg>
