<svg width="21" height="20" viewBox="0 0 21 20" fill="none" xmlns="http://www.w3.org/2000/svg">
<path fill-rule="evenodd" clip-rule="evenodd" d="M20.321 10C20.321 13.0134 18.9881 15.7154 16.8798 17.5488C15.124 19.0756 12.8305 20 10.321 20C7.8115 20 5.51792 19.0756 3.76215 17.5488C1.65383 15.7154 0.320984 13.0134 0.320984 10C0.320984 4.47715 4.79814 0 10.321 0C15.8438 0 20.321 4.47715 20.321 10ZM13.321 7C13.321 5.34315 11.9778 4 10.321 4C8.66413 4 7.32098 5.34315 7.32098 7C7.32098 8.65685 8.66413 10 10.321 10C11.9778 10 13.321 8.65685 13.321 7ZM10.321 12C12.0337 12 13.16 12.9166 13.9542 13.9355C14.5467 14.6957 14.3428 15.8107 13.4832 16.2467C12.5334 16.7285 11.4589 17 10.321 17C9.18308 17 8.10859 16.7285 7.15877 16.2467C6.2992 15.8107 6.09525 14.6956 6.68779 13.9355C7.48195 12.9166 8.60825 12 10.321 12Z" fill="#BDBDBD"/>
</svg>
