<svg width="25" height="26" viewBox="0 0 25 26" fill="none" xmlns="http://www.w3.org/2000/svg">
<path d="M11 16.8999H14V14.8999H11V16.8999ZM15 13.8999V16.9999C15 17.497 14.5971 17.8999 14.1 17.8999H10.9C10.4029 17.8999 10 17.497 10 16.9999V13.8999H15ZM14.5 4.8999C15.8807 4.8999 17 6.01919 17 7.3999V8.8999H8V7.3999C8 6.01919 9.11929 4.8999 10.5 4.8999H14.5ZM14.5 5.8999H10.5C9.67157 5.8999 9 6.57148 9 7.3999V7.8999H16V7.3999C16 6.57148 15.3284 5.8999 14.5 5.8999Z" fill="#FF810E"/>
<path d="M22 14.4001C21.5822 14.7139 21.0628 14.8999 20.5 14.8999H4.5C3.9372 14.8999 3.41783 14.7139 3 14.4001V19.3999C3 20.7806 4.11929 21.8999 5.5 21.8999H19.5C20.8807 21.8999 22 20.7806 22 19.3999V14.4001ZM3.5 7.8999H21.5C22.3284 7.8999 23 8.57148 23 9.3999V19.3999C23 21.3329 21.433 22.8999 19.5 22.8999H5.5C3.567 22.8999 2 21.3329 2 19.3999V9.3999C2 8.57148 2.67157 7.8999 3.5 7.8999ZM3.5 8.8999C3.22386 8.8999 3 9.12376 3 9.3999V12.3999C3 13.2283 3.67157 13.8999 4.5 13.8999H20.5C21.3284 13.8999 22 13.2283 22 12.3999V9.3999C22 9.12376 21.7761 8.8999 21.5 8.8999H3.5Z" fill="#FCFCFC"/>
</svg>
