<svg width="17" height="22" viewBox="0 0 17 22" fill="none" xmlns="http://www.w3.org/2000/svg">
<path fill-rule="evenodd" clip-rule="evenodd" d="M10.5 0.799805H11.0316C11.4768 0.799805 11.899 0.997539 12.184 1.33953L16.6523 6.70158C16.877 6.97115 17 7.31095 17 7.66185V8.2998C17 7.47138 16.3284 6.7998 15.5 6.7998H12.5C12.2239 6.7998 12 6.57595 12 6.2998V2.2998C12 1.47138 11.3284 0.799805 10.5 0.799805ZM10.5 0.799805H3.5C1.567 0.799805 0 2.36681 0 4.2998V18.2998C0 20.2328 1.567 21.7998 3.5 21.7998H13.5C15.433 21.7998 17 20.2328 17 18.2998V8.2998H16C16 8.02366 15.7761 7.7998 15.5 7.7998H12.5C11.6716 7.7998 11 7.12823 11 6.2998V2.2998C11 2.02366 10.7761 1.7998 10.5 1.7998V0.799805ZM13 16.2998C13 16.0237 12.7761 15.7998 12.5 15.7998H4.5C4.22386 15.7998 4 16.0237 4 16.2998C4 16.5759 4.22386 16.7998 4.5 16.7998H12.5C12.7761 16.7998 13 16.5759 13 16.2998ZM12.5 10.7998H4.5L4.41012 10.8079C4.17688 10.8502 4 11.0543 4 11.2998C4 11.5759 4.22386 11.7998 4.5 11.7998H12.5L12.5899 11.7917C12.8231 11.7494 13 11.5453 13 11.2998C13 11.0237 12.7761 10.7998 12.5 10.7998ZM8 6.2998C8 6.02366 7.77614 5.7998 7.5 5.7998H4.5L4.41012 5.80786C4.17688 5.8502 4 6.05434 4 6.2998C4 6.57595 4.22386 6.7998 4.5 6.7998H7.5L7.58988 6.79175C7.82312 6.74941 8 6.54526 8 6.2998Z" fill="white"/>
</svg>
