<svg width="21" height="22" viewBox="0 0 21 22" fill="none" xmlns="http://www.w3.org/2000/svg">
<path d="M1.89982 14.6001V6.6001H1.35982C1.06159 6.6001 0.819824 6.37624 0.819824 6.1001C0.819824 5.82396 1.06159 5.6001 1.35982 5.6001H1.89982V4.1001C1.89982 2.1671 3.59219 0.600098 5.67982 0.600098H16.4798C18.5675 0.600098 20.2598 2.1671 20.2598 4.1001V18.1001C20.2598 20.0331 18.5675 21.6001 16.4798 21.6001H5.67982C3.59219 21.6001 1.89982 20.0331 1.89982 18.1001V15.6001H1.35982C1.06159 15.6001 0.819824 15.3762 0.819824 15.1001C0.819824 14.824 1.06159 14.6001 1.35982 14.6001H1.89982ZM2.97982 14.6001H3.51587C3.8141 14.6001 4.05587 14.824 4.05587 15.1001C4.05587 15.3762 3.8141 15.6001 3.51587 15.6001H2.97982V18.1001C2.97982 19.4808 4.18866 20.6001 5.67982 20.6001H16.4798C17.971 20.6001 19.1798 19.4808 19.1798 18.1001V4.1001C19.1798 2.71939 17.971 1.6001 16.4798 1.6001H5.67982C4.18866 1.6001 2.97982 2.71939 2.97982 4.1001V5.6001H3.51587C3.8141 5.6001 4.05587 5.82396 4.05587 6.1001C4.05587 6.37624 3.8141 6.6001 3.51587 6.6001H2.97982V14.6001Z" fill="#FCFCFC"/>
<path d="M11.0798 11.6001C13.1674 11.6001 14.8598 13.1671 14.8598 15.1001C14.8598 15.3762 14.618 15.6001 14.3198 15.6001C14.0216 15.6001 13.7798 15.3762 13.7798 15.1001C13.7798 13.7194 12.571 12.6001 11.0798 12.6001C9.58864 12.6001 8.3798 13.7194 8.3798 15.1001C8.3798 15.3762 8.13804 15.6001 7.8398 15.6001C7.54157 15.6001 7.2998 15.3762 7.2998 15.1001C7.2998 13.1671 8.99217 11.6001 11.0798 11.6001ZM11.0798 5.6001C12.571 5.6001 13.7798 6.71939 13.7798 8.1001C13.7798 9.48081 12.571 10.6001 11.0798 10.6001C9.58864 10.6001 8.3798 9.48081 8.3798 8.1001C8.3798 6.71939 9.58864 5.6001 11.0798 5.6001ZM11.0798 6.6001C10.1851 6.6001 9.4598 7.27167 9.4598 8.1001C9.4598 8.92852 10.1851 9.6001 11.0798 9.6001C11.9745 9.6001 12.6998 8.92852 12.6998 8.1001C12.6998 7.27167 11.9745 6.6001 11.0798 6.6001Z" fill="#FF810E"/>
</svg>
