<svg width="18" height="17" viewBox="0 0 18 17" fill="none" xmlns="http://www.w3.org/2000/svg">
<path d="M14.1132 4.5193C14.2686 4.38056 14.5098 4.36527 14.6841 4.47335L14.746 4.51967L17.749 7.20724C17.9041 7.34604 17.9214 7.56131 17.8007 7.71709L17.749 7.77246L14.746 10.46C14.5714 10.6163 14.2881 10.6165 14.1132 10.4604C13.9578 10.3217 13.9404 10.1062 14.061 9.95024L14.1128 9.89482L16.7993 7.48902L14.1128 5.08488C13.9576 4.94596 13.9405 4.73045 14.0614 4.57465L14.1132 4.5193Z" fill="#FCFCFC"/>
<path d="M10.1235 7.08984H16.8354C17.0825 7.08984 17.2828 7.2689 17.2828 7.48977C17.2828 7.71065 17.0825 7.8897 16.8354 7.8897H10.1235C9.87636 7.8897 9.67603 7.71065 9.67603 7.48977C9.67603 7.2689 9.87636 7.08984 10.1235 7.08984Z" fill="#FCFCFC"/>
<path fill-rule="evenodd" clip-rule="evenodd" d="M1.10416 0.741408C1.03563 0.72668 0.965399 0.719238 0.89492 0.719238C0.400669 0.719238 0 1.07735 0 1.5191V14.271C0 14.6407 0.283497 14.9623 0.685683 15.0487L6.33892 16.2638C6.40745 16.2785 6.47768 16.2859 6.54816 16.2859C7.04241 16.2859 7.44308 15.9278 7.44308 15.4861V2.73414C7.44308 2.36442 7.15958 2.04289 6.7574 1.95644L1.10416 0.741408ZM0.894919 14.271V1.5191L6.54816 2.73414V15.4861L0.894919 14.271Z" fill="#FCFCFC"/>
<path d="M11.3211 9.23926C11.5408 9.23926 11.7235 9.38073 11.7614 9.5673L11.7686 9.63919V12.6561C11.7686 13.3369 11.4987 13.8271 11.0314 14.1165C10.7664 14.2806 10.4765 14.359 10.2219 14.378L10.0978 14.3827H7.00288C6.75575 14.3827 6.55542 14.2036 6.55542 13.9827C6.55542 13.7864 6.71371 13.6231 6.92245 13.5893L7.00288 13.5828H10.0978C10.4905 13.5828 10.8288 13.3885 10.8696 12.7828L10.8737 12.6561V9.63919C10.8737 9.41831 11.074 9.23926 11.3211 9.23926Z" fill="#FCFCFC"/>
<path d="M11.3213 5.85791C11.541 5.85791 11.7237 5.71643 11.7616 5.52987L11.7688 5.45798V2.44103C11.7688 1.76025 11.4989 1.27003 11.0316 0.980659C10.7665 0.816525 10.4767 0.738211 10.222 0.719185L10.0979 0.71449L0.997509 0.71449C0.750383 0.71449 0.550049 0.893546 0.550049 1.11442C0.550049 1.31075 0.708338 1.47405 0.917077 1.50791L0.997509 1.51435L10.0979 1.51435C10.4906 1.51435 10.829 1.70867 10.8697 2.31435L10.8738 2.44103V5.45798C10.8738 5.67886 11.0742 5.85791 11.3213 5.85791Z" fill="#FCFCFC"/>
</svg>
