<svg width="18" height="19" viewBox="0 0 18 19" fill="none" xmlns="http://www.w3.org/2000/svg">
<path fill-rule="evenodd" clip-rule="evenodd" d="M8.01131 7.36584C7.2671 5.18118 8.08367 2.8742 9.88971 1.58561L10.0922 1.44804C11.1819 0.744469 12.4222 0.523724 13.7635 0.788568C14.4678 0.927629 14.7323 1.80336 14.2244 2.31458L12.7753 3.7737L13.0315 5.43156L14.6723 5.68904L16.1241 4.2283C16.6109 3.7379 17.4264 3.9646 17.6152 4.60505L17.6397 4.70956C17.8595 5.95823 17.7145 7.08158 17.1844 8.05515C16.2211 9.7834 14.9741 10.505 13.2941 10.7388C12.3882 10.8649 11.5756 10.6924 10.9205 10.4267L3.66515 17.7433C2.80333 18.5231 1.73887 18.5014 0.895163 17.7383C0.045221 16.9695 0.101584 15.7015 0.759362 14.9436C0.93012 14.7345 1.66461 13.9785 2.92101 12.7112L8.07625 7.54747L8.01131 7.36584ZM13.5913 1.67518C12.4029 1.44053 11.3416 1.6565 10.4073 2.32308C9.00593 3.32296 8.21512 5.18283 8.85878 7.07235C8.8998 7.1891 8.93387 7.28128 8.96098 7.3489L9.00593 7.45138C9.06225 7.64453 9.02833 7.82482 8.90418 7.99222C8.828 8.07049 8.41476 8.48311 7.81837 9.07859C5.83175 11.0622 1.81292 15.0749 1.45108 15.5179L1.39368 15.5906C1.11805 15.9739 1.02142 16.6387 1.49352 17.0658C1.9971 17.5212 2.58258 17.5682 3.1503 16.9905L10.4073 9.6672C10.5431 9.54339 10.6622 9.47552 10.7647 9.46359C10.9184 9.4457 11.0665 9.5077 11.142 9.54086L11.312 9.6087C11.6396 9.72931 12.3843 9.95341 13.1715 9.84384C14.1838 9.70297 15.4428 9.33547 16.4032 7.61252C16.8251 6.8377 16.9431 5.92267 16.7574 4.86741L15.1622 6.47434L15.0841 6.52747C15.0013 6.57473 14.9043 6.60438 14.7931 6.61642C14.733 6.61068 14.5951 6.59156 14.3793 6.55907L12.6518 6.28514C12.4394 6.24189 12.2866 6.10494 12.1934 5.87428L11.8641 3.74415C11.8546 3.53694 11.9071 3.37482 12.0216 3.25779L13.5913 1.67518Z" fill="#E78137"/>
</svg>
