<svg width="21" height="18" viewBox="0 0 21 18" fill="none" xmlns="http://www.w3.org/2000/svg">
<path d="M13 9.5C13 8.67157 12.3284 8 11.5 8H9.5C8.67157 8 8 8.67157 8 9.5V16.5C8 17.3284 8.67157 18 9.5 18H11.5C12.3284 18 13 17.3284 13 16.5V9.5Z" fill="#FCFCFC"/>
<path d="M5 12.5C5 11.6716 4.32843 11 3.5 11H1.5C0.671573 11 0 11.6716 0 12.5V16.5C0 17.3284 0.671573 18 1.5 18H3.5C4.32843 18 5 17.3284 5 16.5V12.5Z" fill="#FCFCFC"/>
<path d="M21 6.5C21 5.67157 20.3284 5 19.5 5H17.5C16.6716 5 16 5.67157 16 6.5V16.4586C16 17.2871 16.6716 17.9586 17.5 17.9586H19.5C20.3284 17.9586 21 17.2871 21 16.4586V6.5Z" fill="#FCFCFC"/>
<path d="M2 9C2.55228 9 3 8.55228 3 8C3 7.44772 2.55228 7 2 7C1.44772 7 1 7.44772 1 8C1 8.55228 1.44772 9 2 9ZM8 5C8 3.89543 8.89543 3 10 3C10.6833 3 11.2865 3.34263 11.6473 3.86545L15.0422 2.4105C15.0145 2.27801 15 2.1407 15 2C15 0.89543 15.8954 0 17 0C18.1046 0 19 0.89543 19 2C19 3.10457 18.1046 4 17 4C16.3954 4 15.8535 3.73175 15.4868 3.30778L11.9907 4.80581C11.9969 4.86971 12 4.93449 12 5C12 6.10457 11.1046 7 10 7C9.36307 7 8.79568 6.70227 8.42941 6.23838L3.99756 7.90033C3.99918 7.93335 4 7.96658 4 8C4 9.10457 3.10457 10 2 10C0.89543 10 0 9.10457 0 8C0 6.89543 0.89543 6 2 6C2.71707 6 3.34599 6.37737 3.69902 6.94434C4.49617 6.64546 5.73767 6.18001 8.02581 5.32215C8.00883 5.21728 8 5.10967 8 5ZM9.0009 4.95713C9.0003 4.97134 9 4.98564 9 5C9 5.55228 9.44772 6 10 6C10.5523 6 11 5.55228 11 5C11 4.44772 10.5523 4 10 4C9.46208 4 9.02336 4.42473 9.0009 4.95713ZM17 3C17.5523 3 18 2.55228 18 2C18 1.44772 17.5523 1 17 1C16.4477 1 16 1.44772 16 2C16 2.55228 16.4477 3 17 3Z" fill="#FF810E"/>
</svg>
