<svg width="16" height="19" viewBox="0 0 16 19" fill="none" xmlns="http://www.w3.org/2000/svg">
<path fill-rule="evenodd" clip-rule="evenodd" d="M12.8505 5.15772C12.8505 2.47234 10.6788 0.29541 7.99985 0.29541C5.32089 0.29541 3.14917 2.47234 3.14917 5.15772C3.14917 7.84311 5.32089 10.02 7.99985 10.02C10.6788 10.02 12.8505 7.84311 12.8505 5.15772ZM4.07313 5.1577C4.07313 2.98382 5.83119 1.22154 7.99987 1.22154C10.1685 1.22154 11.9266 2.98382 11.9266 5.1577C11.9266 7.33158 10.1685 9.09386 7.99987 9.09386C5.83119 9.09386 4.07313 7.33158 4.07313 5.1577Z" fill="#E78137"/>
<path fill-rule="evenodd" clip-rule="evenodd" d="M15.9925 17.775C15.4285 13.3459 12.7643 11.1313 7.99995 11.1313C3.23558 11.1313 0.571406 13.3459 0.00743511 17.775C0.00248336 17.8139 0 17.8531 0 17.8923C0 18.4038 0.413643 18.8184 0.923898 18.8184H15.076C15.1151 18.8184 15.1541 18.8159 15.1929 18.811C15.6991 18.7462 16.0571 18.2824 15.9925 17.775ZM0.959206 17.6373C1.52673 13.8568 3.78299 12.0575 7.99988 12.0575C12.2168 12.0575 14.473 13.8568 15.0406 17.6373L15.0759 17.8923L0.923437 17.8913L0.959206 17.6373Z" fill="#FCFCFC"/>
</svg>
